<svg id="Layer_1" data-name="Layer 1" xmlns="http://www.w3.org/2000/svg" viewBox="0 0 6.33 5.63"><defs><style>.cls-1{fill:#a8a8a8;}.cls-2{fill:#494949;}.cls-3{fill:#686868;}.cls-4{fill:#4a4a4a;}.cls-5{fill:#696969;}.cls-6{fill:#a9a9a9;}.cls-7{fill:#d4d4d4;}.cls-8{fill:#828282;}.cls-9{fill:#984626;}.cls-10{fill:#bf5f3d;}.cls-11{fill:#ffc2ad;}.cls-12{fill:#fefbf1;}.cls-13{fill:#3a4f61;}.cls-14{fill:#708587;}.cls-15{fill:#11222e;}.cls-16{fill:#203941;}.cls-17{fill:#eee0d1;}.cls-18{fill:#66301d;}.cls-19{fill:#005e08;}.cls-20{fill:#31c20d;}.cls-21{fill:#89ff69;}</style></defs><g id="Office_Table_1" data-name="Office Table 1"><g id="Chair_S" data-name="Chair S"><polygon class="cls-1" points="2.02 4.51 2.27 4.41 2.28 4.57 2.04 4.73 2.02 4.51"/><polygon class="cls-2" points="2.02 4.51 2.27 4.41 2.27 4.33 2 4.36 2.02 4.51"/><path class="cls-2" d="M11.69,13.67a.12.12,0,0,1-.09,0h0a.17.17,0,0,1-.16-.17V12.3a.16.16,0,0,1,.16-.16h0a.12.12,0,0,1,.09,0,.16.16,0,0,1,.08.13v1.23A.16.16,0,0,1,11.69,13.67Z" transform="translate(-9.67 -8.78)"/><path class="cls-3" d="M11.73,13.59V12.36a.17.17,0,0,0-.16-.17h0a.18.18,0,0,0-.17.17v1.23a.17.17,0,0,0,.17.16h0A.16.16,0,0,0,11.73,13.59Z" transform="translate(-9.67 -8.78)"/><path class="cls-1" d="M11.71,13.59V12.36a.17.17,0,0,0-.16-.17h0a.17.17,0,0,1,.16.17v1.23a.16.16,0,0,1-.16.16h0A.16.16,0,0,0,11.71,13.59Z" transform="translate(-9.67 -8.78)"/><path class="cls-1" d="M11.44,13.59V12.36a.15.15,0,0,1,0-.1.09.09,0,0,1,.16,0,.12.12,0,0,1,0,.1v1.23a.14.14,0,0,1,0,.1.1.1,0,0,1-.16,0A.19.19,0,0,1,11.44,13.59Z" transform="translate(-9.67 -8.78)"/><polygon class="cls-1" points="4.3 4.51 4.04 4.41 4.04 4.57 4.28 4.73 4.3 4.51"/><polygon class="cls-2" points="4.3 4.51 4.04 4.41 4.05 4.33 4.32 4.36 4.3 4.51"/><path class="cls-2" d="M14,13.67a.17.17,0,0,0,.1,0h0a.16.16,0,0,0,.15-.17V12.3a.16.16,0,0,0-.15-.16h0a.17.17,0,0,0-.1,0,.17.17,0,0,0-.07.13v1.23A.17.17,0,0,0,14,13.67Z" transform="translate(-9.67 -8.78)"/><path class="cls-3" d="M13.93,13.59V12.36a.18.18,0,0,1,.17-.17h0a.18.18,0,0,1,.17.17v1.23a.17.17,0,0,1-.17.16h0A.17.17,0,0,1,13.93,13.59Z" transform="translate(-9.67 -8.78)"/><path class="cls-1" d="M14,13.59V12.36a.17.17,0,0,1,.16-.17h0a.18.18,0,0,0-.17.17v1.23a.17.17,0,0,0,.17.16h0A.16.16,0,0,1,14,13.59Z" transform="translate(-9.67 -8.78)"/><path class="cls-1" d="M14.23,13.59V12.36a.15.15,0,0,0,0-.1.1.1,0,0,0-.17,0,.15.15,0,0,0,0,.1v1.23a.19.19,0,0,0,0,.1.12.12,0,0,0,.17,0A.19.19,0,0,0,14.23,13.59Z" transform="translate(-9.67 -8.78)"/><polygon class="cls-4" points="3.64 5.06 3.53 4.61 2.7 4.61 2.6 5.06 3.64 5.06"/><polygon class="cls-5" points="3.49 5.06 3.41 4.61 2.82 4.61 2.75 5.06 3.49 5.06"/><path class="cls-4" d="M12,11.66a4,4,0,0,1,1.62,0,.19.19,0,0,1,.15.14,3.27,3.27,0,0,1,0,1.46.19.19,0,0,1-.15.14,4,4,0,0,1-1.62,0,.17.17,0,0,1-.14-.14,3.27,3.27,0,0,1,0-1.46A.17.17,0,0,1,12,11.66Z" transform="translate(-9.67 -8.78)"/><path class="cls-6" d="M12.1,11.74a3.64,3.64,0,0,1,1.47,0,.15.15,0,0,1,.13.13,2.94,2.94,0,0,1,0,1.32.15.15,0,0,1-.13.13,3.32,3.32,0,0,1-1.47,0,.17.17,0,0,1-.14-.13,2.94,2.94,0,0,1,0-1.32A.17.17,0,0,1,12.1,11.74Z" transform="translate(-9.67 -8.78)"/><path class="cls-7" d="M12,12a.17.17,0,0,1,.14-.13,3.64,3.64,0,0,1,1.47,0,.15.15,0,0,1,.13.13,4.39,4.39,0,0,1,.08.62,3.32,3.32,0,0,0-.08-.7.15.15,0,0,0-.13-.13,3.64,3.64,0,0,0-1.47,0,.17.17,0,0,0-.14.13,4,4,0,0,0-.07.7A4.18,4.18,0,0,1,12,12Z" transform="translate(-9.67 -8.78)"/><path class="cls-5" d="M12,13.11a.17.17,0,0,0,.14.13,3.64,3.64,0,0,0,1.47,0,.15.15,0,0,0,.13-.13,4.39,4.39,0,0,0,.08-.62,3.26,3.26,0,0,1-.08.7.15.15,0,0,1-.13.13,3.32,3.32,0,0,1-1.47,0,.17.17,0,0,1-.14-.13,3.92,3.92,0,0,1-.07-.7A4.18,4.18,0,0,0,12,13.11Z" transform="translate(-9.67 -8.78)"/><path class="cls-8" d="M11.65,13.86l-.11.2a5.26,5.26,0,0,0,1.29.11,5.16,5.16,0,0,0,1.29-.11l-.11-.2a.14.14,0,0,0-.12-.07H11.78A.17.17,0,0,0,11.65,13.86Z" transform="translate(-9.67 -8.78)"/><path class="cls-6" d="M12.83,14.42a4.63,4.63,0,0,1-1.2-.12.1.1,0,0,1-.07-.08l0-.14s0,0,0,0a5.29,5.29,0,0,0,1.25.12,5.33,5.33,0,0,0,1.26-.12s0,0,0,0l0,.14a.1.1,0,0,1-.07.08A4.74,4.74,0,0,1,12.83,14.42Z" transform="translate(-9.67 -8.78)"/><path class="cls-7" d="M14,14.29c-.07,0,0-.13,0-.19a3.16,3.16,0,0,1-.94.1,4.86,4.86,0,0,1-1.46-.11s.13.11,0,.18a.63.63,0,0,0,.15,0s-.13-.11,0-.13.22,0,.39.05a7.07,7.07,0,0,0,1.38,0c.35-.05.36,0,.37,0s.06.06,0,.11Z" transform="translate(-9.67 -8.78)"/></g><rect class="cls-9" width="6.33" height="3.78" rx="1.89"/><rect class="cls-10" x="0.09" y="0.1" width="6.15" height="3.57" rx="1.79"/><path class="cls-11" d="M15.62,12.36H10.06c-.13,0-.23-.15-.23-.28v.09a.23.23,0,0,0,.23.23h5.56a.22.22,0,0,0,.22-.23v-.09C15.84,12.21,15.74,12.36,15.62,12.36Z" transform="translate(-9.67 -8.78)"/><path class="cls-9" d="M15.62,9H10.06a.27.27,0,0,0-.23.27V9.18A.23.23,0,0,1,10.06,9h5.56a.22.22,0,0,1,.22.23v.08C15.84,9.14,15.74,9,15.62,9Z" transform="translate(-9.67 -8.78)"/><path class="cls-12" d="M14.37,11.37l-.09-.09-.09-.08a.17.17,0,0,0-.1,0l-.12,0a.2.2,0,0,1,0-.08.19.19,0,0,1,0-.1.24.24,0,0,1,.17-.07h.17a.16.16,0,0,0,.14,0,.15.15,0,0,0,.05-.13.3.3,0,0,0-.05-.14.27.27,0,0,0-.2-.14.34.34,0,0,0-.24.11.45.45,0,0,1-.21.1h-.07a.16.16,0,0,0-.1,0v0h.17a.42.42,0,0,0,.19-.09.47.47,0,0,1,.28-.12.33.33,0,0,1,.22.16.29.29,0,0,1,.06.16.23.23,0,0,1-.06.16.23.23,0,0,1-.17,0h-.17A.2.2,0,0,0,14,11a.19.19,0,0,0,0,.08.05.05,0,0,0,0,0,.13.13,0,0,0,.09,0l.12,0,.1.09a.3.3,0,0,0,.08.08Z" transform="translate(-9.67 -8.78)"/><path class="cls-13" d="M14.38,11.34c-.2.19-.08.33,0,.47s.4.19.51.08.05-.38-.09-.51S14.58,11.14,14.38,11.34Z" transform="translate(-9.67 -8.78)"/><path class="cls-14" d="M14.6,11.21a.35.35,0,0,0-.24.1.41.41,0,0,0-.11.25c0,.09.1.15.18.18a1.39,1.39,0,0,0,.19.06.83.83,0,0,1,.18.13s.09,0,.14,0,.06-.08,0-.13-.1-.1-.12-.18a1.39,1.39,0,0,1-.06-.19A.27.27,0,0,0,14.6,11.21Z" transform="translate(-9.67 -8.78)"/><path class="cls-12" d="M14.59,11.23a.34.34,0,0,0-.21.08l.12.14h0l-.13-.12a.36.36,0,0,0-.09.21.23.23,0,0,0,.17.17,1.15,1.15,0,0,0,.17.06c.08,0,.11.08.17.12s.08,0,.12,0,.06-.08,0-.12a1,1,0,0,1-.12-.17c0-.06,0-.12-.05-.18A.24.24,0,0,0,14.59,11.23Z" transform="translate(-9.67 -8.78)"/><path class="cls-13" d="M14.57,11.48s0,.08-.05,0l-.09-.1s0-.08.05,0Z" transform="translate(-9.67 -8.78)"/><path class="cls-12" d="M2.16,1.57H4.08a0,0,0,0,1,0,0v.31a1,1,0,0,1-1,1h0a1,1,0,0,1-1-1V1.57A0,0,0,0,1,2.16,1.57Z"/><polygon class="cls-14" points="4.26 0.78 1.98 0.78 2.16 1.59 4.08 1.59 4.26 0.78"/><polygon class="cls-15" points="2.08 0.84 4.16 0.84 4.02 1.52 2.22 1.52 2.08 0.84"/><polygon class="cls-16" points="2.82 0.84 2.19 0.84 2.87 1.52 3.5 1.52 2.82 0.84 2.82 0.84"/><polygon class="cls-16" points="3.42 0.84 3.42 0.84 3.09 0.84 3.78 1.52 4.02 1.52 4.03 1.45 3.42 0.84"/><path class="cls-12" d="M2.1.66h2a.12.12,0,0,1,.12.12v0a0,0,0,0,1,0,0H2a0,0,0,0,1,0,0v0A.12.12,0,0,1,2.1.66Z"/><path class="cls-13" d="M12.42,11.41v-.15a0,0,0,0,1,0,0h.44a0,0,0,0,1,0,0v.15h-.52Zm0,.05h0a0,0,0,0,0,0,0h.21v-.06a0,0,0,0,0,0,0h-.23S12.42,11.45,12.42,11.46Zm.28,0v.06h.2a0,0,0,0,0,0,0H12.7Z" transform="translate(-9.67 -8.78)"/><path class="cls-13" d="M12.09,10.61a0,0,0,0,1,0,0h0a0,0,0,0,1,0,0v0l0,0h0a0,0,0,0,1,0,0ZM12,10.48l0,0h0a0,0,0,0,0,0,0h0a0,0,0,0,0,0,0h0l0,0Zm.1,0s0,0,0,0h0l0,0h0s0,0,0,0h0a0,0,0,0,0,0,0Zm.11,0,0,0h0s0,0,0,0h0a0,0,0,0,0,0,0h0l0,0Zm.1,0s0,0,0,0h0l0,0h0s0,0,0,0h0a0,0,0,0,0,0,0Zm.11,0,0,0h0s0,0,0,0h0a0,0,0,0,0,0,0h0l0,0Zm.1,0s0,0,0,0h0a0,0,0,0,0,0,0h0s0,0,0,0h0a0,0,0,0,0,0,0Zm.11,0,0,0h0s0,0,0,0h0a0,0,0,0,0,0,0h0l0,0Zm.1,0s0,0,0,0h0l0,0h0s0,0,0,0h0a0,0,0,0,0,0,0Zm.11,0,0,0h0s0,0,0,0h0a0,0,0,0,0,0,0h0l0,0Zm.1,0s0,0,0,0h0s0,0,0,0h0a0,0,0,0,0,0,0h0a0,0,0,0,0,0,0Zm.11,0s0,0,0,0h0s0,0,0,0h0a0,0,0,0,0,0,0h0a0,0,0,0,0,0,0Zm.1,0s0,0,0,0h0s0,0,0,0h0a0,0,0,0,0,0,0h0a0,0,0,0,0,0,0Zm.11,0s0,0,0,0h0l0,0h0l0,0h0a0,0,0,0,0,0,0Zm.1,0,0,0h0s0,0,0,0h0a0,0,0,0,0,0,0h0s0,0,0,0Zm.11,0s0,0,0,0h0l0,0h0l0,0h0a0,0,0,0,0,0,0Zm.1,0,0,0h0s0,0,0,0h0a0,0,0,0,0,0,0h0s0,0,0,0Zm.08,0h0l0,0h0l0,0h0a0,0,0,0,0,0,0h0A0,0,0,0,0,13.65,10.46Zm-1.66.1,0,0h0a0,0,0,0,0,0,0v0a0,0,0,0,0,0,0h0a0,0,0,0,0,0,0Zm.22,0a0,0,0,0,0,0,0h0a0,0,0,0,0,0,0v0a0,0,0,0,0,0,0h0a0,0,0,0,0,0,0Zm.13,0,0,0h-.05l0,0v0a0,0,0,0,0,0,0h.05a0,0,0,0,0,0,0Zm.12,0a0,0,0,0,0,0,0h0s0,0,0,0v0s0,0,0,0h0a0,0,0,0,0,0,0Zm.12,0s0,0,0,0h-.05a0,0,0,0,0,0,0v0a0,0,0,0,0,0,0h.05s0,0,0,0Zm.13,0a0,0,0,0,0,0,0h0a0,0,0,0,0,0,0v0a0,0,0,0,0,0,0h0a0,0,0,0,0,0,0Zm.12,0a0,0,0,0,0,0,0h0a0,0,0,0,0,0,0v0a0,0,0,0,0,0,0h0a0,0,0,0,0,0,0Zm.13,0,0,0h0a0,0,0,0,0,0,0v0a0,0,0,0,0,0,0h0a0,0,0,0,0,0,0Zm.12,0a0,0,0,0,0,0,0H13s0,0,0,0v0s0,0,0,0h.05a0,0,0,0,0,0,0Zm.12,0s0,0,0,0h0a0,0,0,0,0,0,0v0a0,0,0,0,0,0,0h0s0,0,0,0Zm.13,0a0,0,0,0,0,0,0h-.05l0,0v0a0,0,0,0,0,0,0h.05a0,0,0,0,0,0,0Zm.12,0a0,0,0,0,0,0,0h0a0,0,0,0,0,0,0v0a0,0,0,0,0,0,0h0a0,0,0,0,0,0,0Zm.22,0a0,0,0,0,0,0,0H13.5s0,0,0,0v0s0,0,0,0h.14a0,0,0,0,0,0,0Zm-1.4.13a0,0,0,0,0,0,0h-.05a0,0,0,0,0,0,0v.05s0,0,0,0h.05l0,0Zm-.13,0a0,0,0,0,0,0,0h0a0,0,0,0,0,0,0v.05s0,0,0,0h0s0,0,0,0Zm-.12,0a0,0,0,0,0,0,0h-.05a0,0,0,0,0,0,0v.05s0,0,0,0H12s0,0,0,0Zm.37,0a0,0,0,0,0,0,0h0s0,0,0,0v.05l0,0h0s0,0,0,0Zm.12,0s0,0,0,0h-.05a0,0,0,0,0,0,0v.05s0,0,0,0h.05l0,0Zm.13,0a0,0,0,0,0,0,0h0a0,0,0,0,0,0,0v.05l0,0h0s0,0,0,0Zm.12,0a0,0,0,0,0,0,0h0a0,0,0,0,0,0,0v.05s0,0,0,0h0s0,0,0,0Zm.13,0a0,0,0,0,0,0,0h0a0,0,0,0,0,0,0v.05s0,0,0,0h0l0,0Zm.12,0a0,0,0,0,0,0,0h-.05s0,0,0,0v.05l0,0H13s0,0,0,0Zm.12,0s0,0,0,0h0a0,0,0,0,0,0,0v.05s0,0,0,0h0l0,0Zm.13,0a0,0,0,0,0,0,0h-.05a0,0,0,0,0,0,0v.05l0,0h.05l0,0Zm.12,0a0,0,0,0,0,0,0h0a0,0,0,0,0,0,0v.05s0,0,0,0h0s0,0,0,0Zm.13,0a0,0,0,0,0,0,0h-.05a0,0,0,0,0,0,0v.05s0,0,0,0h.05l0,0Zm.17,0a0,0,0,0,0,0,0h-.09a0,0,0,0,0,0,0v.05s0,0,0,0h.09l0,0Zm-1.5.12a0,0,0,0,0,0,0H12.1s0,0,0,0v0s0,0,0,0h.05a0,0,0,0,0,0,0Zm-.12,0,0,0h-.09l0,0v0a0,0,0,0,0,0,0H12a0,0,0,0,0,0,0Zm.24,0s0,0,0,0h0a0,0,0,0,0,0,0v0a0,0,0,0,0,0,0h0s0,0,0,0Zm.13,0a0,0,0,0,0,0,0h-.05l0,0v0a0,0,0,0,0,0,0h.05a0,0,0,0,0,0,0Zm.12,0a0,0,0,0,0,0,0h0a0,0,0,0,0,0,0v0a0,0,0,0,0,0,0h0a0,0,0,0,0,0,0Zm.13,0,0,0H12.6a0,0,0,0,0,0,0v0a0,0,0,0,0,0,0h.05a0,0,0,0,0,0,0Zm.12,0a0,0,0,0,0,0,0h0s0,0,0,0v0s0,0,0,0h0a0,0,0,0,0,0,0Zm.12,0s0,0,0,0h-.05a0,0,0,0,0,0,0v0a0,0,0,0,0,0,0h.05s0,0,0,0Zm.13,0a0,0,0,0,0,0,0h0l0,0v0a0,0,0,0,0,0,0h0a0,0,0,0,0,0,0Zm.12,0a0,0,0,0,0,0,0h0a0,0,0,0,0,0,0v0a0,0,0,0,0,0,0h0a0,0,0,0,0,0,0Zm.13,0,0,0h0a0,0,0,0,0,0,0v0a0,0,0,0,0,0,0h0a0,0,0,0,0,0,0Zm.12,0a0,0,0,0,0,0,0h-.05s0,0,0,0v0s0,0,0,0h.05a0,0,0,0,0,0,0Zm.25,0a0,0,0,0,0,0,0h-.16a0,0,0,0,0,0,0v0a0,0,0,0,0,0,0h.16a0,0,0,0,0,0,0Zm-1.42.13a0,0,0,0,0,0,0h-.05a0,0,0,0,0,0,0v0a0,0,0,0,0,0,0h.05a0,0,0,0,0,0,0Zm-.14,0s0,0,0,0h-.15s0,0,0,0v0s0,0,0,0h.15s0,0,0,0Zm.26,0a0,0,0,0,0,0,0h-.05a0,0,0,0,0,0,0v0a0,0,0,0,0,0,0h.05a0,0,0,0,0,0,0Zm.12,0a0,0,0,0,0,0,0h0a0,0,0,0,0,0,0v0a0,0,0,0,0,0,0h0a0,0,0,0,0,0,0Zm.13,0a0,0,0,0,0,0,0h-.05a0,0,0,0,0,0,0v0a0,0,0,0,0,0,0h.05a0,0,0,0,0,0,0Zm.12,0a0,0,0,0,0,0,0h0a0,0,0,0,0,0,0v0a0,0,0,0,0,0,0h0a0,0,0,0,0,0,0Zm.13,0a0,0,0,0,0,0,0h-.05a0,0,0,0,0,0,0v0a0,0,0,0,0,0,0h.05a0,0,0,0,0,0,0Zm.12,0a0,0,0,0,0,0,0h-.05a0,0,0,0,0,0,0v0a0,0,0,0,0,0,0H13a0,0,0,0,0,0,0Zm.12,0a0,0,0,0,0,0,0h0a0,0,0,0,0,0,0v0a0,0,0,0,0,0,0h0a0,0,0,0,0,0,0Zm.13,0a0,0,0,0,0,0,0h-.05a0,0,0,0,0,0,0v0a0,0,0,0,0,0,0h.05a0,0,0,0,0,0,0Zm.12,0a0,0,0,0,0,0,0h-.05s0,0,0,0v0s0,0,0,0h.05a0,0,0,0,0,0,0Zm.31,0a0,0,0,0,0,0,0h-.22a0,0,0,0,0,0,0v0a0,0,0,0,0,0,0h.22a0,0,0,0,0,0,0ZM12,11.06l0,0h-.05a0,0,0,0,0,0,0v.06a0,0,0,0,0,0,0H12a0,0,0,0,0,0,0Zm.12,0a0,0,0,0,0,0,0h0l0,0v.06a0,0,0,0,0,0,0h0a0,0,0,0,0,0,0Zm.12,0a0,0,0,0,0,0,0h0a0,0,0,0,0,0,0v.06a0,0,0,0,0,0,0h0a0,0,0,0,0,0,0Zm.13,0,0,0h0l0,0v.06a0,0,0,0,0,0,0h0a0,0,0,0,0,0,0Zm.69,0s0,0,0,0H13a0,0,0,0,0,0,0v.06a0,0,0,0,0,0,0h.05s0,0,0,0Zm-.14,0,0,0h-.45a0,0,0,0,0,0,0v.06a0,0,0,0,0,0,0h.45a0,0,0,0,0,0,0Zm.27,0a0,0,0,0,0,0,0h0a0,0,0,0,0,0,0v.06a0,0,0,0,0,0,0h0a0,0,0,0,0,0,0Zm.12,0a0,0,0,0,0,0,0h0a0,0,0,0,0,0,0v.06a0,0,0,0,0,0,0h0a0,0,0,0,0,0,0Zm.12,0a0,0,0,0,0,0,0h0a0,0,0,0,0,0,0v.06a0,0,0,0,0,0,0h0a0,0,0,0,0,0,0Zm.11.07a0,0,0,0,0,0,0h0a0,0,0,0,0,0,0,0,0,0,0,0,0,0h0A0,0,0,0,0,13.56,11.13Zm0-.07a0,0,0,0,0,0,0h0a0,0,0,0,0,0,0s0,0,0,0h0S13.56,11.07,13.56,11.06Zm.12,0a0,0,0,0,0,0,0h0l0,0v.06a0,0,0,0,0,0,0h0a0,0,0,0,0,0,0Z" transform="translate(-9.67 -8.78)"/><rect class="cls-17" x="0.51" y="1.2" width="1" height="1.32"/><rect class="cls-12" x="0.68" y="1.44" width="1" height="1.32"/><path class="cls-14" d="M15.49,10a.45.45,0,0,1-.52.36.45.45,0,1,1,.17-.89A.45.45,0,0,1,15.49,10Z" transform="translate(-9.67 -8.78)"/><path class="cls-12" d="M15.48,10a.43.43,0,0,1-.51.34.43.43,0,0,1,.16-.85A.44.44,0,0,1,15.48,10Z" transform="translate(-9.67 -8.78)"/><path class="cls-15" d="M15.42,10a.37.37,0,0,1-.44.29.37.37,0,1,1,.14-.73A.37.37,0,0,1,15.42,10Z" transform="translate(-9.67 -8.78)"/><circle class="cls-18" cx="5.38" cy="1.12" r="0.33"/><path class="cls-19" d="M15.37,9.64l-.07-.07a.05.05,0,0,1,0-.08.08.08,0,0,0-.08,0l-.06.07,0,.06a.33.33,0,0,0-.31-.19.43.43,0,0,0-.33.17.13.13,0,0,1,.14,0,.47.47,0,0,1,.06.15.69.69,0,0,0,.07.15l0,0a.2.2,0,0,0,0,.13s.08.06.12.1.07.09,0,.13.06,0,.1-.07a.22.22,0,0,0,.13-.12.21.21,0,0,0,0-.11l.07,0,0,0h0a.29.29,0,0,1,0-.09s0,0,0,0l0-.06A.23.23,0,0,0,15.37,9.64Z" transform="translate(-9.67 -8.78)"/><path class="cls-20" d="M14.76,9.59l-.09,0a.15.15,0,0,0-.09,0,.3.3,0,0,1,.24.19.12.12,0,0,0-.09.09.48.48,0,0,0-.05-.17.2.2,0,0,0-.06-.07.09.09,0,0,0-.1,0,.1.1,0,0,1,.05,0l.09-.05h.15a.16.16,0,0,1,.09.09v0a.25.25,0,0,1,0,.09s0,0,0,0A.18.18,0,0,0,14.76,9.59Zm.48.14a.17.17,0,0,1,0,.07s0,0,0,0a.19.19,0,0,0,0-.13.14.14,0,0,1,0-.06.06.06,0,0,1,0-.06.19.19,0,0,0,0,.1.2.2,0,0,1,0,.17.19.19,0,0,1,.07.08.11.11,0,0,0,.05-.12.24.24,0,0,0-.06-.11s-.06,0-.07-.08,0-.08,0-.09-.07.1-.06.15l0,.05Zm0,.38h-.08a.07.07,0,0,1-.07,0,.34.34,0,0,0,0,.1.09.09,0,0,1,0,.09.17.17,0,0,0,0-.1.15.15,0,0,1,0-.11.07.07,0,0,1-.09,0,.17.17,0,0,0,0,.1s.05,0,.06.08a.13.13,0,0,1,0,.1.24.24,0,0,1,.08-.06h0a.12.12,0,0,0,0-.05A.16.16,0,0,0,15.22,10.11Zm.14,0a.21.21,0,0,0-.14-.07h-.1a.1.1,0,0,1-.06-.05h0a.26.26,0,0,1-.09,0l-.08-.06a.12.12,0,0,0-.1,0,.17.17,0,0,1,.1-.14h.07a.14.14,0,0,1,0-.09A.32.32,0,0,1,15,9.53a.51.51,0,0,1,.16-.09.21.21,0,0,0,0,.2.6.6,0,0,1,.06.19.13.13,0,0,1,.08,0,.24.24,0,0,1,.08.11A.23.23,0,0,1,15.36,10.15Zm-.1-.2-.06,0a.05.05,0,0,1,0,0,.13.13,0,0,1-.18,0,.35.35,0,0,1-.05-.08.22.22,0,0,0,.09.14.08.08,0,0,0,.08,0s0,0,0,0h0l0,0,.07,0a.1.1,0,0,1,.06.05A.12.12,0,0,0,15.26,10Z" transform="translate(-9.67 -8.78)"/><path class="cls-21" d="M15,9.66a.24.24,0,0,1,.12-.18.71.71,0,0,0-.08.15.2.2,0,0,0,0,.17l0,0s0,.05,0,0,0,0,0,0A.23.23,0,0,1,15,9.66Zm-.08.2a.08.08,0,0,0-.08,0,.08.08,0,0,0-.07,0,.12.12,0,0,1,.1,0,.18.18,0,0,1,.09.06.05.05,0,0,1,0,0S14.94,9.86,14.93,9.86Zm.32.19a.25.25,0,0,1-.12,0,.06.06,0,0,1,0-.08.06.06,0,0,0,0,.09s.09,0,.14,0a.12.12,0,0,1,.1,0A.1.1,0,0,0,15.25,10.05Zm-.39,0s0,0,0,0a.17.17,0,0,0,0,.06.23.23,0,0,0,.07.07S14.88,10.09,14.86,10ZM15,9.52a.33.33,0,0,0-.22,0,.22.22,0,0,1,.12,0s0,0,0,0S15,9.51,15,9.52Z" transform="translate(-9.67 -8.78)"/></g></svg>