<svg xmlns="http://www.w3.org/2000/svg" version="1.1" xmlns:xlink="http://www.w3.org/1999/xlink" xmlns:svgjs="http://svgjs.dev/svgjs" width="1000" height="351" viewBox="0 0 1000 351"><g transform="matrix(1,0,0,1,-0.6060606060606233,-0.30135362061247406)"><svg viewBox="0 0 396 139" data-background-color="#ffffff" preserveAspectRatio="xMidYMid meet" height="351" width="1000" xmlns="http://www.w3.org/2000/svg" xmlns:xlink="http://www.w3.org/1999/xlink"><g id="tight-bounds" transform="matrix(1,0,0,1,0.2400000000000091,0.11933946799183559)"><svg viewBox="0 0 395.52 138.76132106401636" height="138.76132106401636" width="395.52"><g><svg viewBox="0 0 652.9021861713002 229.05938986325336" height="138.76132106401636" width="395.52"><g transform="matrix(1,0,0,1,257.38218617130013,64.31596193916276)"><svg viewBox="0 0 395.52 100.42746598492784" height="100.42746598492784" width="395.52"><g><svg viewBox="0 0 395.52 100.42746598492784" height="100.42746598492784" width="395.52"><g><svg viewBox="0 0 395.52 59.986606660666055" height="59.986606660666055" width="395.52"><g transform="matrix(1,0,0,1,0,0)"><svg width="395.52" viewBox="0.4000000059604645 -32.900001525878906 224.29000854492188 33.70000076293945" height="59.986606660666055" data-palette-color="#e6b17e"><g class="undefined-text-0" data-fill-palette-color="primary" id="text-0"><path d="M41.35-4.45L41.7-4.05 41.25 0.15Q37.2 0 35.8 0L35.8 0Q34.15 0 30.43 0.15 26.7 0.3 26.35 0.4L26.35 0.4 26.95-4.05Q28.35-4.2 28.93-4.75 29.5-5.3 29.5-6.5L29.5-6.5Q29.5-9.1 29.25-18.45L29.25-18.45 28.6-18.45Q28.55-18.25 26.93-13.28 25.3-8.3 23 0.1L23 0.1 16.95 0.6Q14.45-8.55 12.95-13.43 11.45-18.3 11.4-18.45L11.4-18.45 10.75-18.45Q10.75-17.7 10.65-15.5L10.65-15.5 10.45-6Q10.45-4.3 12.1-4.3L12.1-4.3 13.4-4.4 13.85-4 13.25 0.2Q8.65 0 6.2 0L6.2 0Q5.15 0 2.78 0.18 0.4 0.35 0.4 0.4L0.4 0.4 0.8-4Q2.1-4.15 2.68-4.83 3.25-5.5 3.65-7.35L3.65-7.35Q4-10.3 4.73-17.73 5.45-25.15 5.45-25.7L5.45-25.7Q5.45-26.7 5.28-27.08 5.1-27.45 4.53-27.63 3.95-27.8 2.3-28L2.3-28 1.9-28.4 2.4-32.6Q8.55-32.35 9.65-32.35L9.65-32.35Q12.7-32.35 17.2-32.55L17.2-32.55Q17.85-29.15 18.98-24.55 20.1-19.95 21.1-16.3L21.1-16.3 21.7-16.3Q24.35-25.2 26.1-32.35L26.1-32.35Q28.1-32.35 29.1-32.3L29.1-32.3 32.1-32.25Q33.15-32.25 35.15-32.35L35.15-32.35 39.85-32.65 40.2-32.45 39.8-28.15Q37.75-28.05 37.1-27.55 36.45-27.05 36.45-25.55L36.45-25.55Q36.45-23.35 36.8-17.82 37.15-12.3 37.55-8.75L37.55-8.75Q37.75-6.2 38.25-5.28 38.75-4.35 39.9-4.35L39.9-4.35Q40.65-4.35 41.35-4.45L41.35-4.45ZM58.75 0.3L58.35-0.15 58.65-4.35Q60.35-4.55 60.92-4.67 61.5-4.8 61.67-5.08 61.85-5.35 61.85-6.05L61.85-6.05 61.75-6.95 61.45-8.9 57.6-9Q56.85-9 53.6-8.75L53.6-8.75 53.1-6.55Q52.95-5.75 52.95-5.45L52.95-5.45Q52.95-4.8 53.22-4.63 53.5-4.45 54.5-4.45L54.5-4.45 55.8-4.45 56.2-3.95 55.8 0.2Q55.05 0.15 52.82 0.1 50.6 0.05 48.1 0.05L48.1 0.05 41.45 0.1 41.8-4.25Q43.6-4.7 44.35-7L44.35-7 52.3-32.1 65.45-32.9 66.2-32.3Q66.95-29.2 69.25-20.13 71.55-11.05 72.45-7.65L72.45-7.65Q72.9-5.95 73.57-5.18 74.25-4.4 75.4-4.3L75.4-4.3 75.75-3.8 75.35 0.15Q74.65 0.15 72.6 0.1 70.55 0.05 68.3 0.05L68.3 0.05Q65.35 0.05 62.45 0.15 59.55 0.25 58.75 0.3L58.75 0.3ZM55.2-15.05L57.75-15.05Q58.55-15.05 60.35-15.15L60.35-15.15 58.65-23.9 57.55-23.9 55.2-15.05ZM79.9-25.4Q79.9-26.95 79.55-27.45 79.2-27.95 78.15-27.95L78.15-27.95 76.84-27.9 76.4-28.6 76.84-32.4 84.84-32.35Q87.09-32.35 89.75-32.45 92.4-32.55 93.45-32.6L93.45-32.6 93.09-28.1Q91.25-27.65 90.7-27.13 90.15-26.6 90.09-25.3L90.09-25.3 89.75-7.8Q89.7-5.7 90.02-5.03 90.34-4.35 91.34-4.35L91.34-4.35Q92-4.35 92.42-4.4 92.84-4.45 92.95-4.5L92.95-4.5 93.34-4 92.9 0.2Q91.9 0.15 89.32 0.08 86.75 0 84.55 0L84.55 0Q82.59 0 79.84 0.1 77.09 0.2 76.25 0.25L76.25 0.25 76.65-4Q78.65-4.4 79.27-5.2 79.9-6 79.9-8.1L79.9-8.1 79.9-25.4ZM90.45-17.35L96.05-24Q96.55-24.5 96.82-25.13 97.09-25.75 97.09-26.3L97.09-26.3Q97.09-27.15 96.65-27.5 96.2-27.85 95.05-27.9L95.05-27.9 94.75-28.4 95.2-32.5Q96-32.5 98.12-32.43 100.25-32.35 102.34-32.35L102.34-32.35Q104.25-32.35 106.47-32.45 108.7-32.55 109.55-32.6L109.55-32.6 110-31.85 109.55-28.1Q107.7-27.05 105.95-25.3 104.2-23.55 102.2-20.75L102.2-20.75 100.09-17.8 104.8-8.7Q105.95-6.5 107.05-5.45 108.15-4.4 109.7-4.2L109.7-4.2 110.2-3.45 109.65 0.25Q108.65 0.35 105.72 0.58 102.8 0.8 102 0.8L102 0.8Q100.05 0.8 98.84-0.08 97.65-0.95 96.5-3.25L96.5-3.25 90.2-15.85 90.45-17.35ZM114.64 0.45L115.04-4.15Q117.14-4.35 118.17-4.73 119.19-5.1 119.59-5.95 119.99-6.8 119.99-8.4L119.99-8.4 119.99-26.3Q118.59-26.3 117.92-25.8 117.24-25.3 116.92-23.9 116.59-22.5 116.34-19.5L116.34-19.5 110.14-19.1Q110.44-24.95 110.54-32.2L110.54-32.2 111.19-32.9 117.14-32.35 132.84-32.35 138.89-32.9 139.54-32.2Q139.64-23.75 139.79-19.5L139.79-19.5 133.59-19.1Q133.34-22.55 133.04-23.98 132.74-25.4 132.14-25.85 131.54-26.3 130.14-26.3L130.14-26.3Q129.89-17.2 129.89-8L129.89-8Q129.89-6.1 130.47-5.33 131.04-4.55 132.49-4.55L132.49-4.55Q133.39-4.55 135.04-4.7L135.04-4.7 135.29-4.4 134.84 0.3Q128.24 0 124.69 0L124.69 0Q121.39 0 114.64 0.45L114.64 0.45ZM156.84 0.3L156.44-0.15 156.74-4.35Q158.44-4.55 159.02-4.67 159.59-4.8 159.77-5.08 159.94-5.35 159.94-6.05L159.94-6.05 159.84-6.95 159.54-8.9 155.69-9Q154.94-9 151.69-8.75L151.69-8.75 151.19-6.55Q151.04-5.75 151.04-5.45L151.04-5.45Q151.04-4.8 151.32-4.63 151.59-4.45 152.59-4.45L152.59-4.45 153.89-4.45 154.29-3.95 153.89 0.2Q153.14 0.15 150.92 0.1 148.69 0.05 146.19 0.05L146.19 0.05 139.54 0.1 139.89-4.25Q141.69-4.7 142.44-7L142.44-7 150.39-32.1 163.54-32.9 164.29-32.3Q165.04-29.2 167.34-20.13 169.64-11.05 170.54-7.65L170.54-7.65Q170.99-5.95 171.67-5.18 172.34-4.4 173.49-4.3L173.49-4.3 173.84-3.8 173.44 0.15Q172.74 0.15 170.69 0.1 168.64 0.05 166.39 0.05L166.39 0.05Q163.44 0.05 160.54 0.15 157.64 0.25 156.84 0.3L156.84 0.3ZM153.29-15.05L155.84-15.05Q156.64-15.05 158.44-15.15L158.44-15.15 156.74-23.9 155.64-23.9 153.29-15.05ZM183.29 0Q181.29 0 178.24 0.15 175.19 0.3 174.24 0.35L174.24 0.35 174.69-4.15Q176.64-4.5 177.34-5.25 178.04-6 178.04-7.8L178.04-7.8 178.09-25.65Q178.09-27.95 176.74-27.95L176.74-27.95Q176.24-27.95 175.74-27.9 175.24-27.85 175.04-27.85L175.04-27.85 174.44-28.45 175.04-32.45 183.49-32.35Q185.69-32.4 188.76-32.52 191.84-32.65 193.09-32.7L193.09-32.7Q198.69-32.7 201.59-30.68 204.49-28.65 204.49-24.8L204.49-24.8Q204.49-22.25 203.19-20.45 201.89-18.65 199.64-17.15L199.64-17.15Q202.44-16.15 204.16-14.53 205.89-12.9 205.89-9.9L205.89-9.9Q205.89 0.55 191.49 0.55L191.49 0.55Q190.39 0.4 187.34 0.2 184.29 0 183.29 0L183.29 0ZM188.09-19.45Q188.54-19.35 189.96-19.13 191.39-18.9 192.09-18.9L192.09-18.9Q192.09-18.8 192.66-19.38 193.24-19.95 193.71-20.88 194.19-21.8 194.19-23L194.19-23Q194.19-24.75 192.99-25.58 191.79-26.4 189.34-26.4L189.34-26.4Q188.84-26.4 188.66-26.25 188.49-26.1 188.44-25.7L188.44-25.7Q188.34-24.35 188.21-22.23 188.09-20.1 188.09-19.45L188.09-19.45ZM187.99-13L187.74-8Q187.74-6.8 188.61-6.25 189.49-5.7 191.39-5.7L191.39-5.7Q193.24-5.7 194.19-6.63 195.14-7.55 195.14-9.35L195.14-9.35Q195.14-10.6 194.31-11.55 193.49-12.5 191.94-13L191.94-13 187.99-13ZM207.49 0.25L207.89-4Q209.89-4.45 210.51-5.25 211.14-6.05 211.14-8.1L211.14-8.1 211.14-25.4Q211.14-26.95 210.79-27.45 210.44-27.95 209.39-27.95L209.39-27.95 208.09-27.9 207.64-28.6 208.04-32.35 216.09-32.35Q217.29-32.35 224.69-32.6L224.69-32.6 224.34-28.1Q222.64-27.85 222.11-27.38 221.59-26.9 221.49-25.5L221.49-25.5Q220.99-16.85 220.99-7.8L220.99-7.8Q220.99-5.7 221.31-5.03 221.64-4.35 222.59-4.35L222.59-4.35Q223.54-4.35 224.19-4.5L224.19-4.5 224.59-4 224.14 0.2Q218.64 0 215.79 0L215.79 0Q213.09 0 207.49 0.25L207.49 0.25Z" fill="#e6b17e" data-fill-palette-color="primary"></path></g></svg></g></svg></g><g transform="matrix(1,0,0,1,163.31020799999996,74.14800481468946)"><svg viewBox="0 0 232.20979200000002 26.27946117023838" height="26.27946117023838" width="232.20979200000002"><g transform="matrix(1,0,0,1,0,0)"><svg width="232.20979200000002" viewBox="3.799999952316284 -37 415.5500183105469 47" height="26.27946117023838" data-palette-color="#d9bca9"><path d="M3.8 0L3.8-37 7.6-37 7.6-21.6 8.1-21.6Q8.85-24.15 10.53-25.28 12.2-26.4 14.6-26.4L14.6-26.4Q16.9-26.4 18.65-25.45 20.4-24.5 21.6-22.75 22.8-21 23.4-18.5 24-16 24-12.9L24-12.9Q24-9.8 23.4-7.3 22.8-4.8 21.6-3.05 20.4-1.3 18.65-0.35 16.9 0.6 14.6 0.6L14.6 0.6Q12.2 0.6 10.53-0.53 8.85-1.65 8.1-4.2L8.1-4.2 7.6-4.2 7.6 0 3.8 0ZM13.45-2.8L13.45-2.8Q16.6-2.8 18.25-4.78 19.9-6.75 19.9-10.3L19.9-10.3 19.9-15.5Q19.9-19.05 18.25-21.03 16.6-23 13.45-23L13.45-23Q12.25-23 11.18-22.65 10.1-22.3 9.33-21.65 8.55-21 8.08-20.1 7.6-19.2 7.6-18.1L7.6-18.1 7.6-7.7Q7.6-6.6 8.08-5.7 8.55-4.8 9.33-4.15 10.1-3.5 11.18-3.15 12.25-2.8 13.45-2.8ZM38.8 0.6L38.8 0.6Q36.55 0.6 34.6-0.15 32.65-0.9 31.25-2.55 29.85-4.2 29.05-6.75 28.25-9.3 28.25-12.9L28.25-12.9Q28.25-16.5 29.05-19.05 29.85-21.6 31.25-23.25 32.65-24.9 34.6-25.65 36.55-26.4 38.8-26.4L38.8-26.4Q41.05-26.4 43-25.65 44.95-24.9 46.35-23.25 47.75-21.6 48.55-19.05 49.35-16.5 49.35-12.9L49.35-12.9Q49.35-9.3 48.55-6.75 47.75-4.2 46.35-2.55 44.95-0.9 43-0.15 41.05 0.6 38.8 0.6ZM38.8-2.8L38.8-2.8Q41.9-2.8 43.57-4.65 45.25-6.5 45.25-10.3L45.25-10.3 45.25-15.5Q45.25-19.3 43.57-21.15 41.9-23 38.8-23L38.8-23Q35.7-23 34.02-21.15 32.35-19.3 32.35-15.5L32.35-15.5 32.35-10.3Q32.35-6.5 34.02-4.65 35.7-2.8 38.8-2.8ZM64 0.6L64 0.6Q61.75 0.6 59.8-0.15 57.85-0.9 56.45-2.55 55.05-4.2 54.25-6.75 53.45-9.3 53.45-12.9L53.45-12.9Q53.45-16.5 54.25-19.05 55.05-21.6 56.45-23.25 57.85-24.9 59.8-25.65 61.75-26.4 64-26.4L64-26.4Q66.25-26.4 68.2-25.65 70.15-24.9 71.55-23.25 72.95-21.6 73.75-19.05 74.55-16.5 74.55-12.9L74.55-12.9Q74.55-9.3 73.75-6.75 72.95-4.2 71.55-2.55 70.15-0.9 68.2-0.15 66.25 0.6 64 0.6ZM64-2.8L64-2.8Q67.1-2.8 68.77-4.65 70.45-6.5 70.45-10.3L70.45-10.3 70.45-15.5Q70.45-19.3 68.77-21.15 67.1-23 64-23L64-23Q60.9-23 59.22-21.15 57.55-19.3 57.55-15.5L57.55-15.5 57.55-10.3Q57.55-6.5 59.22-4.65 60.9-2.8 64-2.8ZM80.39 0L80.39-37 84.19-37 84.19-18 83.89-12.95 84.29-12.95 87.89-17.8 94.34-25.8 98.94-25.8 90.39-15.55 99.69 0 95.14 0 87.59-13.3 84.19-9.3 84.19 0 80.39 0ZM124.89-12.8L128.84-25.8 132.54-25.8 122.34 6.6Q122.04 7.6 121.69 8.28 121.34 8.95 120.81 9.33 120.29 9.7 119.56 9.85 118.84 10 117.74 10L117.74 10 114.94 10 114.94 6.65 118.89 6.65 120.39 1.4 111.84-25.8 115.64-25.8 119.59-12.8 121.99-3.35 122.49-3.35 124.89-12.8ZM145.74 0.6L145.74 0.6Q143.49 0.6 141.54-0.15 139.59-0.9 138.19-2.55 136.79-4.2 135.99-6.75 135.19-9.3 135.19-12.9L135.19-12.9Q135.19-16.5 135.99-19.05 136.79-21.6 138.19-23.25 139.59-24.9 141.54-25.65 143.49-26.4 145.74-26.4L145.74-26.4Q147.99-26.4 149.94-25.65 151.89-24.9 153.29-23.25 154.69-21.6 155.49-19.05 156.29-16.5 156.29-12.9L156.29-12.9Q156.29-9.3 155.49-6.75 154.69-4.2 153.29-2.55 151.89-0.9 149.94-0.15 147.99 0.6 145.74 0.6ZM145.74-2.8L145.74-2.8Q148.84-2.8 150.51-4.65 152.19-6.5 152.19-10.3L152.19-10.3 152.19-15.5Q152.19-19.3 150.51-21.15 148.84-23 145.74-23L145.74-23Q142.64-23 140.96-21.15 139.29-19.3 139.29-15.5L139.29-15.5 139.29-10.3Q139.29-6.5 140.96-4.65 142.64-2.8 145.74-2.8ZM176.38 0L176.38-4.2 175.88-4.2Q175.13-1.8 173.56-0.6 171.98 0.6 169.28 0.6L169.28 0.6Q165.83 0.6 163.86-1.75 161.88-4.1 161.88-9L161.88-9 161.88-25.8 165.68-25.8 165.68-9.25Q165.68-6.15 166.96-4.5 168.23-2.85 170.88-2.85L170.88-2.85Q173.18-2.85 174.78-4.25 176.38-5.65 176.38-8.2L176.38-8.2 176.38-25.8 180.18-25.8 180.18 0 176.38 0ZM191.58 0L187.78 0 187.78-25.8 191.58-25.8 191.58-21 192.08-21Q192.73-23.25 194.31-24.53 195.88-25.8 198.43-25.8L198.43-25.8 199.83-25.8 199.83-21.95 197.33-21.95Q194.63-21.95 193.11-20.75 191.58-19.55 191.58-17.15L191.58-17.15 191.58 0ZM223.78 0.6L223.78 0.6Q221.53 0.6 219.58-0.15 217.63-0.9 216.23-2.55 214.83-4.2 214.03-6.75 213.23-9.3 213.23-12.9L213.23-12.9Q213.23-16.5 214.03-19.05 214.83-21.6 216.23-23.25 217.63-24.9 219.58-25.65 221.53-26.4 223.78-26.4L223.78-26.4Q226.03-26.4 227.98-25.65 229.93-24.9 231.33-23.25 232.73-21.6 233.53-19.05 234.33-16.5 234.33-12.9L234.33-12.9Q234.33-9.3 233.53-6.75 232.73-4.2 231.33-2.55 229.93-0.9 227.98-0.15 226.03 0.6 223.78 0.6ZM223.78-2.8L223.78-2.8Q226.88-2.8 228.55-4.65 230.23-6.5 230.23-10.3L230.23-10.3 230.23-15.5Q230.23-19.3 228.55-21.15 226.88-23 223.78-23L223.78-23Q220.68-23 219-21.15 217.33-19.3 217.33-15.5L217.33-15.5 217.33-10.3Q217.33-6.5 219-4.65 220.68-2.8 223.78-2.8ZM241.27 0L241.27-22.45 237.52-22.45 237.52-25.8 241.27-25.8 241.27-32.1Q241.27-34.65 242.45-35.83 243.62-37 246.17-37L246.17-37 250.02-37 250.02-33.65 245.07-33.65 245.07-25.8 250.02-25.8 250.02-22.45 245.07-22.45 245.07 0 241.27 0ZM255.97 0L255.97-22.45 252.22-22.45 252.22-25.8 255.97-25.8 255.97-32.1Q255.97-34.65 257.15-35.83 258.32-37 260.87-37L260.87-37 264.72-37 264.72-33.65 259.77-33.65 259.77-25.8 264.72-25.8 264.72-22.45 259.77-22.45 259.77 0 255.97 0ZM271.62-32.05L271.62-32.05Q269.27-32.05 269.27-34.1L269.27-34.1 269.27-34.9Q269.27-36.95 271.62-36.95L271.62-36.95Q273.97-36.95 273.97-34.9L273.97-34.9 273.97-34.1Q273.97-32.05 271.62-32.05ZM269.72 0L269.72-25.8 273.52-25.8 273.52 0 269.72 0ZM289.62 0.6L289.62 0.6Q284.82 0.6 282.09-2.55 279.37-5.7 279.37-12.9L279.37-12.9Q279.37-20.1 282.09-23.25 284.82-26.4 289.62-26.4L289.62-26.4Q293.27-26.4 295.44-24.73 297.62-23.05 298.62-20.45L298.62-20.45 295.47-18.85Q294.82-20.85 293.42-21.93 292.02-23 289.62-23L289.62-23Q286.47-23 284.97-21.15 283.47-19.3 283.47-15.5L283.47-15.5 283.47-10.3Q283.47-6.5 284.97-4.65 286.47-2.8 289.62-2.8L289.62-2.8Q292.12-2.8 293.64-3.9 295.17-5 296.07-7.25L296.07-7.25 298.87-5.3Q297.72-2.6 295.39-1 293.07 0.6 289.62 0.6ZM312.26 0.6L312.26 0.6Q310.01 0.6 308.06-0.15 306.11-0.9 304.71-2.55 303.31-4.2 302.51-6.75 301.71-9.3 301.71-12.9L301.71-12.9Q301.71-16.5 302.51-19.05 303.31-21.6 304.71-23.25 306.11-24.9 308.06-25.65 310.01-26.4 312.26-26.4L312.26-26.4Q314.51-26.4 316.39-25.65 318.26-24.9 319.56-23.25 320.86-21.6 321.59-19.05 322.31-16.5 322.31-12.9L322.31-12.9 322.31-11.95 305.76-11.95 305.76-10.3Q305.76-6.5 307.49-4.63 309.21-2.75 312.26-2.75L312.26-2.75Q314.86-2.75 316.51-3.88 318.16-5 319.11-7.25L319.11-7.25 321.71-5.35Q320.51-2.7 318.19-1.05 315.86 0.6 312.26 0.6ZM312.26-23.2L312.26-23.2Q309.16-23.2 307.46-21.25 305.76-19.3 305.76-15.5L305.76-15.5 305.76-14.85 318.26-14.85 318.26-15.5Q318.26-23.2 312.26-23.2ZM342.61 0L338.81 0 338.81-25.8 342.61-25.8 342.61-21.6 343.11-21.6Q343.86-24 345.43-25.2 347.01-26.4 349.71-26.4L349.71-26.4Q353.16-26.4 355.13-24.05 357.11-21.7 357.11-16.8L357.11-16.8 357.11 0 353.31 0 353.31-16.55Q353.31-19.65 352.03-21.3 350.76-22.95 348.11-22.95L348.11-22.95Q345.81-22.95 344.21-21.55 342.61-20.15 342.61-17.6L342.61-17.6 342.61 0ZM373.26 0.6L373.26 0.6Q371.01 0.6 369.06-0.15 367.11-0.9 365.71-2.55 364.31-4.2 363.51-6.75 362.71-9.3 362.71-12.9L362.71-12.9Q362.71-16.5 363.51-19.05 364.31-21.6 365.71-23.25 367.11-24.9 369.06-25.65 371.01-26.4 373.26-26.4L373.26-26.4Q375.51-26.4 377.46-25.65 379.41-24.9 380.81-23.25 382.21-21.6 383.01-19.05 383.81-16.5 383.81-12.9L383.81-12.9Q383.81-9.3 383.01-6.75 382.21-4.2 380.81-2.55 379.41-0.9 377.46-0.15 375.51 0.6 373.26 0.6ZM373.26-2.8L373.26-2.8Q376.36-2.8 378.03-4.65 379.71-6.5 379.71-10.3L379.71-10.3 379.71-15.5Q379.71-19.3 378.03-21.15 376.36-23 373.26-23L373.26-23Q370.16-23 368.48-21.15 366.81-19.3 366.81-15.5L366.81-15.5 366.81-10.3Q366.81-6.5 368.48-4.65 370.16-2.8 373.26-2.8ZM393.15 0L386.95-25.8 390.65-25.8 393.15-14.6 395.35-3.35 395.85-3.35 398.4-14.6 401-25.8 405.4-25.8 408-14.6 410.55-3.35 411.05-3.35 413.25-14.6 415.75-25.8 419.35-25.8 413.15 0 408.35 0 405.2-12.5 403.45-21.95 402.95-21.95 401.1-12.5 397.95 0 393.15 0Z" opacity="1" transform="matrix(1,0,0,1,0,0)" fill="#d9bca9" class="undefined-text-1" data-fill-palette-color="secondary" id="text-1"></path></svg></g></svg></g></svg></g></svg></g><g><svg viewBox="0 0 229.05938986325336 229.05938986325336" height="229.05938986325336" width="229.05938986325336"><g><svg></svg></g><g id="icon-0"><svg viewBox="0 0 229.05938986325336 229.05938986325336" height="229.05938986325336" width="229.05938986325336"><g><path d="M0 114.53c0-63.253 51.277-114.53 114.53-114.53 63.253 0 114.53 51.277 114.529 114.53 0 63.253-51.277 114.53-114.529 114.529-63.253 0-114.53-51.277-114.53-114.529zM114.53 223.65c60.265 0 109.12-48.855 109.12-109.12 0-60.265-48.855-109.12-109.12-109.12-60.265 0-109.12 48.855-109.12 109.12 0 60.265 48.855 109.12 109.12 109.12z" data-fill-palette-color="accent" fill="#e6b17e" stroke="transparent"></path></g><g transform="matrix(1,0,0,1,46.665768228565554,57.0020942516)"><svg viewBox="0 0 135.72785340612225 115.05520136005336" height="115.05520136005336" width="135.72785340612225"><g><svg xmlns="http://www.w3.org/2000/svg" xmlns:xlink="http://www.w3.org/1999/xlink" version="1.1" x="0" y="0" viewBox="4.899999618530273 13.5 80.0999984741211 67.9000015258789" enable-background="new 0 0 90 90" xml:space="preserve" height="115.05520136005336" width="135.72785340612225" class="icon-a-0" data-fill-palette-color="accent" id="a-0"><circle cx="60.6" cy="19.1" r="5.6" fill="#e6b17e" data-fill-palette-color="accent"></circle><path d="M85 47.6c0 1.2-1 2.2-2.2 2.2H7.1c-1.2 0-2.2-1-2.2-2.2l0 0c0-1.2 1-2.2 2.2-2.2h75.7C84 45.4 85 46.4 85 47.6L85 47.6z" fill="#e6b17e" data-fill-palette-color="accent"></path><path d="M81.4 79c0 1.3-1.1 2.4-2.4 2.4H10.3c-1.3 0-2.4-1.1-2.4-2.4V52.8c0-1.3 1.1-2.4 2.4-2.4h68.6c1.3 0 2.4 1.1 2.4 2.4V79z" fill="#e6b17e" data-fill-palette-color="accent"></path><path d="M40 25.6c0-0.9-0.7-1.6-1.6-1.6H16.6c-0.9 0-1.6 0.7-1.6 1.6v13.8c0 0.9 0.7 1.6 1.6 1.6h21.8c0.9 0 1.6-0.7 1.6-1.6V25.6z" fill="#e6b17e" data-fill-palette-color="accent"></path><path d="M33.8 42H21.1c-0.9 0-1.7 0.1-1.7 1 0 0.9 0.8 1 1.7 1h12.7c0.9 0 1.7-0.1 1.7-1C35.5 42.1 34.7 42 33.8 42z" fill="#e6b17e" data-fill-palette-color="accent"></path><path d="M66.1 26.4H54.9c-0.1 0-0.3 0-0.4 0-0.1 0-0.4 0-0.1 0 0 0-0.1 0-0.2 0-0.2 0-0.4 0.1-0.7 0.1 0 0-0.1 0-0.1 0-0.1 0-0.1 0-0.2 0-0.1 0-0.1 0-0.2 0.1v0c-2.1 0.6-4 2.4-4.8 4.9l-4.1 13.2h5.3l3.5-11.4 0 0v11.4h14v-12h0.8v12h5.1V34.1C72.9 29.8 69.9 26.4 66.1 26.4z" fill="#e6b17e" data-fill-palette-color="accent"></path></svg></g></svg></g></svg></g></svg></g></svg></g><defs></defs></svg><rect width="395.52" height="138.76132106401636" fill="none" stroke="none" visibility="hidden"></rect></g></svg></g></svg>