<svg id="Layer_1" data-name="Layer 1" xmlns="http://www.w3.org/2000/svg" viewBox="0 0 26.07 20.58"><defs><style>.cls-1{fill:#a8a8a8;}.cls-2{fill:#494949;}.cls-3{fill:#686868;}.cls-4{fill:#a9a9a9;}.cls-5{fill:#d4d4d4;}.cls-6{fill:#984626;}.cls-7{fill:#bf5f3d;}.cls-8{fill:#ffc2ad;}</style></defs><g id="Meeting_Table_5" data-name="Meeting Table 5"><polygon class="cls-1" points="21.84 16.59 21.99 16.48 22.16 16.6 22.09 16.73 21.84 16.59"/><polygon class="cls-2" points="21.84 16.59 21.99 16.48 21.91 16.44 21.67 16.49 21.84 16.59"/><path class="cls-2" d="M21.2,19.29a.19.19,0,0,1,0,.12h0a.22.22,0,0,1-.29,0l-1.26-.92a.21.21,0,0,1-.05-.28h0v0h0a.2.2,0,0,1,.09-.07.21.21,0,0,1,.2,0l1.26.91A.23.23,0,0,1,21.2,19.29Z" transform="translate(1.02 -2.42)"/><path class="cls-3" d="M21.14,19.19l-1.26-.92a.2.2,0,0,0-.29.05h0a.22.22,0,0,0,0,.3l1.27.91a.21.21,0,0,0,.29,0h0A.21.21,0,0,0,21.14,19.19Z" transform="translate(1.02 -2.42)"/><path class="cls-1" d="M21.12,19.22l-1.26-.92a.2.2,0,0,0-.28,0h0a.2.2,0,0,1,.29-.05l1.26.92a.21.21,0,0,1,.05.3h0A.21.21,0,0,0,21.12,19.22Z" transform="translate(1.02 -2.42)"/><path class="cls-1" d="M20.92,19.49l-1.26-.91a.2.2,0,0,1-.08-.12.13.13,0,0,1,.12-.16.2.2,0,0,1,.13,0l1.27.92a.23.23,0,0,1,.08.11.13.13,0,0,1-.12.16A.18.18,0,0,1,20.92,19.49Z" transform="translate(1.02 -2.42)"/><polygon class="cls-1" points="23.71 14.02 23.66 14.2 23.82 14.32 23.92 14.21 23.71 14.02"/><polygon class="cls-2" points="23.71 14.02 23.66 14.2 23.59 14.13 23.57 13.89 23.71 14.02"/><path class="cls-2" d="M23.07,16.72a.23.23,0,0,0,.1-.07h0v0h0a.21.21,0,0,0-.06-.28l-1.26-.92a.22.22,0,0,0-.29,0h0a.25.25,0,0,0,0,.12.24.24,0,0,0,.09.18l1.26.91A.21.21,0,0,0,23.07,16.72Z" transform="translate(1.02 -2.42)"/><path class="cls-3" d="M23,16.7l-1.26-.92a.22.22,0,0,1,0-.3h0a.21.21,0,0,1,.29,0l1.26.91a.21.21,0,0,1,.05.3h0A.21.21,0,0,1,23,16.7Z" transform="translate(1.02 -2.42)"/><path class="cls-1" d="M23,16.67l-1.26-.92a.2.2,0,0,1-.05-.28h0a.22.22,0,0,0,0,.3L23,16.7a.21.21,0,0,0,.3-.05h0A.22.22,0,0,1,23,16.67Z" transform="translate(1.02 -2.42)"/><path class="cls-1" d="M23.18,16.39l-1.27-.91a.16.16,0,0,0-.13,0,.13.13,0,0,0-.12.16.2.2,0,0,0,.08.12l1.26.91a.23.23,0,0,0,.14,0,.13.13,0,0,0,.12-.16A.25.25,0,0,0,23.18,16.39Z" transform="translate(1.02 -2.42)"/><path class="cls-3" d="M22.89,16.78,21.2,19.11,19.45,17.8a.24.24,0,0,1-.05-.34l1.38-1.9a.24.24,0,0,1,.34-.06Z" transform="translate(1.02 -2.42)"/><path class="cls-1" d="M20.94,15.67l-1.38,1.91c-.08.1-.11.22,0,.3h0a.24.24,0,0,1-.06-.34l1.39-1.91a.24.24,0,0,1,.34-.05h0C21.12,15.5,21,15.56,20.94,15.67Z" transform="translate(1.02 -2.42)"/><path class="cls-2" d="M20.89,15.63,19.5,17.54a.24.24,0,0,0,.06.34l-.11-.08a.24.24,0,0,1-.05-.34l1.38-1.9a.24.24,0,0,1,.34-.06l.11.08A.24.24,0,0,0,20.89,15.63Z" transform="translate(1.02 -2.42)"/><path class="cls-4" d="M22.49,17l-1.17,1.61a.36.36,0,0,1-.49.09l-1-.73a.34.34,0,0,1-.07-.49l1.17-1.61a.36.36,0,0,1,.49-.09l1,.73A.35.35,0,0,1,22.49,17Z" transform="translate(1.02 -2.42)"/><path class="cls-5" d="M20.93,15.9l-1.17,1.61a.34.34,0,0,0,.07.49l.08.06a.35.35,0,0,1-.06-.49L21,16a.36.36,0,0,1,.49-.09l-.08-.06A.36.36,0,0,0,20.93,15.9Z" transform="translate(1.02 -2.42)"/><path class="cls-2" d="M22.49,17l-1.17,1.61a.36.36,0,0,1-.49.09l-.08-.06a.36.36,0,0,0,.49-.09L22.4,17a.35.35,0,0,0-.06-.49l.09.06A.35.35,0,0,1,22.49,17Z" transform="translate(1.02 -2.42)"/><path class="cls-2" d="M21.51,19.74c-.11-.18-.43-.63-.34-.75l1.6-2.2c.09-.12.6.05.8.09Z" transform="translate(1.02 -2.42)"/><path class="cls-3" d="M23.3,17l-1.73,2.38a.4.4,0,0,0,.09.56h0a.4.4,0,0,0,.56-.09L24,17.51a.4.4,0,0,0-.09-.55h0A.4.4,0,0,0,23.3,17Z" transform="translate(1.02 -2.42)"/><path class="cls-1" d="M23.35,17.08l-1.72,2.38a.38.38,0,0,0,.06.53h0a.4.4,0,0,1-.09-.56L23.3,17a.4.4,0,0,1,.56-.08l0,0A.39.39,0,0,0,23.35,17.08Z" transform="translate(1.02 -2.42)"/><path class="cls-1" d="M23.87,17.46l-1.72,2.38a.48.48,0,0,1-.22.15.25.25,0,0,1-.31-.23.38.38,0,0,1,.08-.25l1.72-2.38a.48.48,0,0,1,.22-.15.25.25,0,0,1,.31.23A.38.38,0,0,1,23.87,17.46Z" transform="translate(1.02 -2.42)"/><path class="cls-5" d="M23.62,17a23,23,0,0,0-2,2.72c.15,0,.35,0,.37.18l.2-.27c-.18.16-.22,0-.26,0a18.53,18.53,0,0,1,1.65-2.27s.2,0,.11.23l.19-.27C23.72,17.36,23.64,17.18,23.62,17Z" transform="translate(1.02 -2.42)"/><polygon class="cls-1" points="16.95 18.93 17.14 18.93 17.21 19.12 17.07 19.18 16.95 18.93"/><polygon class="cls-2" points="16.95 18.93 17.14 18.93 17.1 18.84 16.88 18.75 16.95 18.93"/><path class="cls-2" d="M16.08,21.8a.23.23,0,0,1-.1.07h0a.2.2,0,0,1-.25-.14l-.48-1.48a.2.2,0,0,1,.12-.26h0a.28.28,0,0,1,.13,0,.22.22,0,0,1,.14.14l.48,1.48A.2.2,0,0,1,16.08,21.8Z" transform="translate(1.02 -2.42)"/><path class="cls-3" d="M16.09,21.68l-.48-1.48a.22.22,0,0,0-.27-.14h0a.21.21,0,0,0-.13.27l.48,1.48A.21.21,0,0,0,16,22h0A.21.21,0,0,0,16.09,21.68Z" transform="translate(1.02 -2.42)"/><path class="cls-1" d="M16.06,21.69l-.48-1.48a.21.21,0,0,0-.25-.14h0a.22.22,0,0,1,.27.14l.48,1.48A.21.21,0,0,1,16,22h0A.2.2,0,0,0,16.06,21.69Z" transform="translate(1.02 -2.42)"/><path class="cls-1" d="M15.74,21.8l-.49-1.48a.22.22,0,0,1,0-.14.13.13,0,0,1,.19-.07.21.21,0,0,1,.08.11L16,21.71a.23.23,0,0,1,0,.14.12.12,0,0,1-.19.06A.18.18,0,0,1,15.74,21.8Z" transform="translate(1.02 -2.42)"/><polygon class="cls-1" points="19.98 17.94 19.83 18.05 19.89 18.25 20.04 18.22 19.98 17.94"/><polygon class="cls-2" points="19.98 17.94 19.83 18.05 19.81 17.96 19.94 17.75 19.98 17.94"/><path class="cls-2" d="M19.1,20.82a.2.2,0,0,0,.13,0h0a.21.21,0,0,0,.12-.26l-.48-1.49a.22.22,0,0,0-.25-.14h0a.23.23,0,0,0-.1.07.21.21,0,0,0,0,.19L19,20.68A.22.22,0,0,0,19.1,20.82Z" transform="translate(1.02 -2.42)"/><path class="cls-3" d="M19,20.73l-.48-1.48a.21.21,0,0,1,.14-.27h0a.2.2,0,0,1,.26.14l.49,1.48a.23.23,0,0,1-.14.27h0A.23.23,0,0,1,19,20.73Z" transform="translate(1.02 -2.42)"/><path class="cls-1" d="M19.06,20.72l-.49-1.48a.21.21,0,0,1,.12-.26h0a.21.21,0,0,0-.14.27L19,20.73a.23.23,0,0,0,.27.14h0A.2.2,0,0,1,19.06,20.72Z" transform="translate(1.02 -2.42)"/><path class="cls-1" d="M19.38,20.61l-.48-1.48a.2.2,0,0,0-.09-.11.12.12,0,0,0-.19.06.17.17,0,0,0,0,.14l.48,1.49a.44.44,0,0,0,.08.11.14.14,0,0,0,.2-.07A.22.22,0,0,0,19.38,20.61Z" transform="translate(1.02 -2.42)"/><path class="cls-3" d="M18.92,20.76l-2.73.89-.65-2.09a.24.24,0,0,1,.16-.3l2.23-.73a.25.25,0,0,1,.31.16Z" transform="translate(1.02 -2.42)"/><path class="cls-1" d="M18,18.72l-2.24.72c-.13,0-.22.12-.18.25h0a.25.25,0,0,1,.16-.31L18,18.65a.24.24,0,0,1,.3.16h0C18.24,18.68,18.12,18.67,18,18.72Z" transform="translate(1.02 -2.42)"/><path class="cls-2" d="M18,18.65l-2.24.73a.25.25,0,0,0-.16.31l0-.13a.24.24,0,0,1,.16-.3l2.23-.73a.25.25,0,0,1,.31.16l0,.12A.24.24,0,0,0,18,18.65Z" transform="translate(1.02 -2.42)"/><path class="cls-4" d="M18.45,20.73l-1.89.61a.35.35,0,0,1-.45-.21L15.72,20a.36.36,0,0,1,.24-.44l1.89-.61a.35.35,0,0,1,.45.21l.39,1.18A.36.36,0,0,1,18.45,20.73Z" transform="translate(1.02 -2.42)"/><path class="cls-5" d="M17.85,18.9,16,19.51a.36.36,0,0,0-.24.44l0,.1a.35.35,0,0,1,.23-.44l1.9-.61a.33.33,0,0,1,.44.21l0-.1A.35.35,0,0,0,17.85,18.9Z" transform="translate(1.02 -2.42)"/><path class="cls-2" d="M18.45,20.73l-1.89.61a.35.35,0,0,1-.45-.21l0-.1a.34.34,0,0,0,.45.21l1.89-.61a.35.35,0,0,0,.23-.44l0,.1A.36.36,0,0,1,18.45,20.73Z" transform="translate(1.02 -2.42)"/><path class="cls-2" d="M16.06,22.34c0-.2,0-.76.17-.8l2.59-.85c.14,0,.45.4.6.55Z" transform="translate(1.02 -2.42)"/><path class="cls-3" d="M19.1,21.21l-2.79.91a.4.4,0,0,0-.26.5h0a.4.4,0,0,0,.5.26L19.34,22a.4.4,0,0,0,.26-.5h0A.4.4,0,0,0,19.1,21.21Z" transform="translate(1.02 -2.42)"/><path class="cls-1" d="M19.12,21.27l-2.79.91a.4.4,0,0,0-.27.47v0a.4.4,0,0,1,.26-.5l2.79-.91a.4.4,0,0,1,.5.26v0A.4.4,0,0,0,19.12,21.27Z" transform="translate(1.02 -2.42)"/><path class="cls-1" d="M19.32,21.89l-2.8.91a.46.46,0,0,1-.26,0,.26.26,0,0,1-.12-.37.41.41,0,0,1,.21-.15l2.8-.91a.39.39,0,0,1,.26,0,.26.26,0,0,1,.12.37A.42.42,0,0,1,19.32,21.89Z" transform="translate(1.02 -2.42)"/><path class="cls-5" d="M19.37,21.38a23.76,23.76,0,0,0-3.19,1c.14.07.28.2.19.37l.32-.1c-.24,0-.18-.12-.19-.17a17.72,17.72,0,0,1,2.67-.87c0,.05.15.13-.06.25l.32-.11C19.26,21.71,19.29,21.52,19.37,21.38Z" transform="translate(1.02 -2.42)"/><polygon class="cls-1" points="16.95 1.56 17.14 1.56 17.21 1.36 17.07 1.3 16.95 1.56"/><polygon class="cls-2" points="16.95 1.56 17.14 1.56 17.1 1.64 16.88 1.74 16.95 1.56"/><path class="cls-2" d="M16.08,3.53a.23.23,0,0,0-.1-.07h0a.22.22,0,0,0-.25.14l-.48,1.49a.21.21,0,0,0,.12.26h0a.2.2,0,0,0,.13,0,.22.22,0,0,0,.14-.14l.48-1.49A.18.18,0,0,0,16.08,3.53Z" transform="translate(1.02 -2.42)"/><path class="cls-3" d="M16.09,3.64l-.48,1.49a.22.22,0,0,1-.27.14h0A.21.21,0,0,1,15.21,5l.48-1.49A.21.21,0,0,1,16,3.38h0A.2.2,0,0,1,16.09,3.64Z" transform="translate(1.02 -2.42)"/><path class="cls-1" d="M16.06,3.63l-.48,1.49a.23.23,0,0,1-.25.14h0a.22.22,0,0,0,.27-.14l.48-1.49A.2.2,0,0,0,16,3.38h0A.21.21,0,0,1,16.06,3.63Z" transform="translate(1.02 -2.42)"/><path class="cls-1" d="M15.74,3.53,15.25,5a.22.22,0,0,0,0,.14.12.12,0,0,0,.19.06.15.15,0,0,0,.08-.11L16,3.62a.22.22,0,0,0,0-.14.12.12,0,0,0-.19-.06A.15.15,0,0,0,15.74,3.53Z" transform="translate(1.02 -2.42)"/><polygon class="cls-1" points="19.98 2.54 19.83 2.43 19.89 2.23 20.04 2.27 19.98 2.54"/><polygon class="cls-2" points="19.98 2.54 19.83 2.43 19.81 2.52 19.94 2.73 19.98 2.54"/><path class="cls-2" d="M19.1,4.51h.14a.2.2,0,0,1,.12.26l-.48,1.48a.2.2,0,0,1-.25.14h0a.21.21,0,0,1-.13-.27L19,4.65A.22.22,0,0,1,19.1,4.51Z" transform="translate(1.02 -2.42)"/><path class="cls-3" d="M19,4.6l-.48,1.48a.21.21,0,0,0,.14.27h0a.21.21,0,0,0,.26-.14l.49-1.48a.23.23,0,0,0-.14-.27h0A.21.21,0,0,0,19,4.6Z" transform="translate(1.02 -2.42)"/><path class="cls-1" d="M19.06,4.61l-.49,1.48a.21.21,0,0,0,.12.26h0a.21.21,0,0,1-.14-.27L19,4.6a.21.21,0,0,1,.27-.14h0A.2.2,0,0,0,19.06,4.61Z" transform="translate(1.02 -2.42)"/><path class="cls-1" d="M19.38,4.71,18.9,6.2a.31.31,0,0,1-.09.11.13.13,0,0,1-.19-.07.15.15,0,0,1,0-.13l.48-1.49a.31.31,0,0,1,.08-.11.14.14,0,0,1,.2.06A.22.22,0,0,1,19.38,4.71Z" transform="translate(1.02 -2.42)"/><path class="cls-3" d="M18.92,4.57l-2.73-.89-.65,2.08a.25.25,0,0,0,.16.31l2.23.73a.25.25,0,0,0,.31-.16Z" transform="translate(1.02 -2.42)"/><path class="cls-1" d="M18,6.61l-2.24-.73c-.13,0-.22-.11-.18-.24h0a.25.25,0,0,0,.16.31L18,6.67a.23.23,0,0,0,.3-.15h0C18.24,6.65,18.12,6.65,18,6.61Z" transform="translate(1.02 -2.42)"/><path class="cls-2" d="M18,6.67,15.74,6a.25.25,0,0,1-.16-.31l0,.12a.25.25,0,0,0,.16.31l2.23.73a.25.25,0,0,0,.31-.16l0-.12A.23.23,0,0,1,18,6.67Z" transform="translate(1.02 -2.42)"/><path class="cls-4" d="M18.45,4.6,16.56,4a.36.36,0,0,0-.45.22l-.39,1.18a.37.37,0,0,0,.24.44l1.89.61a.35.35,0,0,0,.45-.21L18.69,5A.36.36,0,0,0,18.45,4.6Z" transform="translate(1.02 -2.42)"/><path class="cls-5" d="M17.85,6.43,16,5.82a.37.37,0,0,1-.24-.44l0-.1a.35.35,0,0,0,.23.44l1.9.61a.34.34,0,0,0,.44-.21l0,.1A.35.35,0,0,1,17.85,6.43Z" transform="translate(1.02 -2.42)"/><path class="cls-2" d="M18.45,4.6,16.56,4a.36.36,0,0,0-.45.22l0,.1a.35.35,0,0,1,.45-.22l1.89.62a.34.34,0,0,1,.23.43l0-.1A.36.36,0,0,0,18.45,4.6Z" transform="translate(1.02 -2.42)"/><path class="cls-2" d="M16.06,3c0,.2,0,.75.17.8l2.59.84c.14,0,.45-.39.6-.55Z" transform="translate(1.02 -2.42)"/><path class="cls-3" d="M19.1,4.11l-2.79-.9a.41.41,0,0,1-.26-.51h0a.39.39,0,0,1,.5-.25l2.79.9a.41.41,0,0,1,.26.51h0A.39.39,0,0,1,19.1,4.11Z" transform="translate(1.02 -2.42)"/><path class="cls-1" d="M19.12,4.05l-2.79-.9a.41.41,0,0,1-.27-.48v0a.41.41,0,0,0,.26.51l2.79.9a.39.39,0,0,0,.5-.25v0A.39.39,0,0,1,19.12,4.05Z" transform="translate(1.02 -2.42)"/><path class="cls-1" d="M19.32,3.44l-2.8-.91a.39.39,0,0,0-.26,0,.25.25,0,0,0-.12.36.42.42,0,0,0,.21.16l2.8.91a.39.39,0,0,0,.26,0,.25.25,0,0,0,.12-.36A.37.37,0,0,0,19.32,3.44Z" transform="translate(1.02 -2.42)"/><path class="cls-5" d="M19.37,3.94a23.72,23.72,0,0,1-3.19-1c.14-.07.28-.21.19-.37l.32.1c-.24,0-.18.12-.19.17a18.92,18.92,0,0,0,2.67.87c0-.05.15-.13-.06-.26l.32.11C19.26,3.61,19.29,3.8,19.37,3.94Z" transform="translate(1.02 -2.42)"/><polygon class="cls-1" points="21.84 3.89 21.99 4 22.16 3.88 22.09 3.75 21.84 3.89"/><polygon class="cls-2" points="21.84 3.89 21.99 4 21.91 4.05 21.67 3.99 21.84 3.89"/><path class="cls-2" d="M21.2,6a.15.15,0,0,0,0-.11h0v0h0a.21.21,0,0,0-.29,0l-1.26.92a.2.2,0,0,0-.05.28h0a.23.23,0,0,0,.09.08.24.24,0,0,0,.2,0l1.26-.92A.21.21,0,0,0,21.2,6Z" transform="translate(1.02 -2.42)"/><path class="cls-3" d="M21.14,6.14l-1.26.92a.22.22,0,0,1-.29,0h0a.22.22,0,0,1,0-.3l1.27-.92a.22.22,0,0,1,.29,0h0A.21.21,0,0,1,21.14,6.14Z" transform="translate(1.02 -2.42)"/><path class="cls-1" d="M21.12,6.11,19.86,7a.2.2,0,0,1-.28,0V7a.22.22,0,0,0,.29,0l1.26-.92a.21.21,0,0,0,.05-.3h0A.21.21,0,0,1,21.12,6.11Z" transform="translate(1.02 -2.42)"/><path class="cls-1" d="M20.92,5.83l-1.26.92a.21.21,0,0,0-.08.11A.14.14,0,0,0,19.7,7a.2.2,0,0,0,.13,0l1.27-.92A.28.28,0,0,0,21.18,6a.14.14,0,0,0-.12-.17A.23.23,0,0,0,20.92,5.83Z" transform="translate(1.02 -2.42)"/><polygon class="cls-1" points="23.71 6.47 23.66 6.29 23.82 6.16 23.92 6.28 23.71 6.47"/><polygon class="cls-2" points="23.71 6.47 23.66 6.29 23.59 6.35 23.57 6.59 23.71 6.47"/><path class="cls-2" d="M23.07,8.61a.23.23,0,0,1,.1.07h0v0h0a.22.22,0,0,1-.06.29l-1.26.92a.23.23,0,0,1-.29,0h0a.28.28,0,0,1,0-.12.23.23,0,0,1,.09-.18l1.26-.92A.21.21,0,0,1,23.07,8.61Z" transform="translate(1.02 -2.42)"/><path class="cls-3" d="M23,8.63l-1.26.92a.21.21,0,0,0,0,.29h0a.2.2,0,0,0,.29.05L23.2,9a.2.2,0,0,0,.05-.29h0A.21.21,0,0,0,23,8.63Z" transform="translate(1.02 -2.42)"/><path class="cls-1" d="M23,8.66l-1.26.91a.22.22,0,0,0-.05.29v0a.21.21,0,0,1,0-.29L23,8.63a.21.21,0,0,1,.3,0h0A.22.22,0,0,0,23,8.66Z" transform="translate(1.02 -2.42)"/><path class="cls-1" d="M23.18,8.93l-1.27.92a.2.2,0,0,1-.13,0,.13.13,0,0,1-.12-.16.2.2,0,0,1,.08-.12L23,8.69a.33.33,0,0,1,.14,0,.14.14,0,0,1,.12.17A.23.23,0,0,1,23.18,8.93Z" transform="translate(1.02 -2.42)"/><path class="cls-3" d="M22.89,8.54,21.2,6.22,19.45,7.53a.24.24,0,0,0-.05.34l1.38,1.9a.24.24,0,0,0,.34.05Z" transform="translate(1.02 -2.42)"/><path class="cls-1" d="M20.94,9.66,19.56,7.75c-.08-.11-.11-.22,0-.3h0a.24.24,0,0,0-.06.34l1.39,1.9a.24.24,0,0,0,.34.06h0C21.12,9.83,21,9.76,20.94,9.66Z" transform="translate(1.02 -2.42)"/><path class="cls-2" d="M20.89,9.69,19.5,7.79a.24.24,0,0,1,.06-.34l-.11.08a.24.24,0,0,0-.05.34l1.38,1.9a.24.24,0,0,0,.34.05l.11-.07A.24.24,0,0,1,20.89,9.69Z" transform="translate(1.02 -2.42)"/><path class="cls-4" d="M22.49,8.29l-1.17-1.6a.35.35,0,0,0-.49-.1l-1,.73a.35.35,0,0,0-.07.5l1.17,1.61a.36.36,0,0,0,.49.09l1-.73A.36.36,0,0,0,22.49,8.29Z" transform="translate(1.02 -2.42)"/><path class="cls-5" d="M20.93,9.43,19.76,7.82a.35.35,0,0,1,.07-.5l.08-.06a.36.36,0,0,0-.06.5L21,9.36a.35.35,0,0,0,.49.1l-.08.06A.36.36,0,0,1,20.93,9.43Z" transform="translate(1.02 -2.42)"/><path class="cls-2" d="M22.49,8.29l-1.17-1.6a.35.35,0,0,0-.49-.1l-.08.06a.35.35,0,0,1,.49.1l1.16,1.6a.36.36,0,0,1-.06.5l.09-.06A.36.36,0,0,0,22.49,8.29Z" transform="translate(1.02 -2.42)"/><path class="cls-2" d="M21.51,5.59c-.11.18-.43.63-.34.75l1.6,2.2c.09.12.6,0,.8-.09Z" transform="translate(1.02 -2.42)"/><path class="cls-3" d="M23.3,8.28,21.57,5.91a.4.4,0,0,1,.09-.56h0a.4.4,0,0,1,.56.09L24,7.81a.41.41,0,0,1-.09.56h0A.4.4,0,0,1,23.3,8.28Z" transform="translate(1.02 -2.42)"/><path class="cls-1" d="M23.35,8.25,21.63,5.87a.39.39,0,0,1,.06-.54l0,0a.4.4,0,0,0-.09.56L23.3,8.28a.4.4,0,0,0,.56.09l0,0A.39.39,0,0,1,23.35,8.25Z" transform="translate(1.02 -2.42)"/><path class="cls-1" d="M23.87,7.87,22.15,5.49a.37.37,0,0,0-.22-.15.25.25,0,0,0-.31.23.41.41,0,0,0,.08.25l1.72,2.37a.37.37,0,0,0,.22.15A.24.24,0,0,0,24,8.12.38.38,0,0,0,23.87,7.87Z" transform="translate(1.02 -2.42)"/><path class="cls-5" d="M23.62,8.31a23,23,0,0,1-2-2.72c.15,0,.35,0,.37-.19l.2.27c-.18-.15-.22,0-.26,0A19.33,19.33,0,0,0,23.61,8s.2,0,.11-.24l.19.28C23.72,8,23.64,8.15,23.62,8.31Z" transform="translate(1.02 -2.42)"/><polygon class="cls-1" points="24.42 8.65 24.48 8.83 24.69 8.83 24.7 8.68 24.42 8.65"/><polygon class="cls-2" points="24.42 8.65 24.48 8.83 24.39 8.82 24.23 8.63 24.42 8.65"/><path class="cls-2" d="M23.87,11.07a.21.21,0,0,0,0-.12h0a.22.22,0,0,0-.21-.2H22.14a.22.22,0,0,0-.22.2h0a.21.21,0,0,0,0,.12.21.21,0,0,0,.18.1H23.7A.21.21,0,0,0,23.87,11.07Z" transform="translate(1.02 -2.42)"/><path class="cls-3" d="M23.77,11.12H22.2a.21.21,0,0,1-.21-.21h0a.21.21,0,0,1,.21-.21h1.57a.21.21,0,0,1,.21.21h0A.21.21,0,0,1,23.77,11.12Z" transform="translate(1.02 -2.42)"/><path class="cls-1" d="M23.77,11.09H22.2a.22.22,0,0,1-.21-.2v0a.21.21,0,0,0,.21.21h1.57a.21.21,0,0,0,.21-.21v0A.22.22,0,0,1,23.77,11.09Z" transform="translate(1.02 -2.42)"/><path class="cls-1" d="M23.77,10.75H22.2a.2.2,0,0,0-.13,0,.14.14,0,0,0,0,.21.2.2,0,0,0,.13,0h1.57a.2.2,0,0,0,.13,0,.15.15,0,0,0,0-.21A.2.2,0,0,0,23.77,10.75Z" transform="translate(1.02 -2.42)"/><polygon class="cls-1" points="24.42 11.84 24.48 11.66 24.69 11.65 24.7 11.8 24.42 11.84"/><polygon class="cls-2" points="24.42 11.84 24.48 11.66 24.39 11.67 24.23 11.85 24.42 11.84"/><path class="cls-2" d="M23.87,14.25a.28.28,0,0,1,0,.12h0v0h0a.21.21,0,0,1-.21.19H22.14a.21.21,0,0,1-.22-.19h0v0h0a.28.28,0,0,1,0-.12.23.23,0,0,1,.18-.09H23.7A.22.22,0,0,1,23.87,14.25Z" transform="translate(1.02 -2.42)"/><path class="cls-3" d="M23.77,14.2H22.2a.22.22,0,0,0-.21.22h0a.22.22,0,0,0,.21.21h1.57a.22.22,0,0,0,.21-.21h0A.22.22,0,0,0,23.77,14.2Z" transform="translate(1.02 -2.42)"/><path class="cls-1" d="M23.77,14.24H22.2a.21.21,0,0,0-.21.19h0a.22.22,0,0,1,.21-.22h1.57a.22.22,0,0,1,.21.22h0A.21.21,0,0,0,23.77,14.24Z" transform="translate(1.02 -2.42)"/><path class="cls-1" d="M23.77,14.58H22.2a.21.21,0,0,1-.13-.05.13.13,0,0,1,0-.2.21.21,0,0,1,.13-.05h1.57a.21.21,0,0,1,.13.05.13.13,0,0,1,0,.2A.21.21,0,0,1,23.77,14.58Z" transform="translate(1.02 -2.42)"/><path class="cls-3" d="M23.76,14.09V11.22l-2.18,0a.24.24,0,0,0-.24.25v2.35a.24.24,0,0,0,.24.24Z" transform="translate(1.02 -2.42)"/><path class="cls-1" d="M21.53,13.85V11.5c0-.14,0-.25.18-.25h0a.24.24,0,0,0-.24.25v2.35a.24.24,0,0,0,.24.24h0C21.57,14.09,21.53,14,21.53,13.85Z" transform="translate(1.02 -2.42)"/><path class="cls-2" d="M21.47,13.85V11.5a.24.24,0,0,1,.24-.25h-.13a.24.24,0,0,0-.24.25v2.35a.24.24,0,0,0,.24.24h.13A.24.24,0,0,1,21.47,13.85Z" transform="translate(1.02 -2.42)"/><path class="cls-4" d="M23.59,13.66v-2a.36.36,0,0,0-.35-.36H22a.35.35,0,0,0-.34.36v2A.35.35,0,0,0,22,14h1.24A.36.36,0,0,0,23.59,13.66Z" transform="translate(1.02 -2.42)"/><path class="cls-5" d="M21.66,13.66v-2a.35.35,0,0,1,.34-.36h.1a.35.35,0,0,0-.34.36v2a.35.35,0,0,0,.34.36H22A.35.35,0,0,1,21.66,13.66Z" transform="translate(1.02 -2.42)"/><path class="cls-2" d="M23.59,13.66v-2a.36.36,0,0,0-.35-.36h-.1a.35.35,0,0,1,.34.36v2a.35.35,0,0,1-.34.36h.1A.36.36,0,0,0,23.59,13.66Z" transform="translate(1.02 -2.42)"/><path class="cls-2" d="M24.38,10.89c-.19.09-.71.26-.71.41V14c0,.15.51.31.7.4Z" transform="translate(1.02 -2.42)"/><rect class="cls-3" x="22.78" y="12.26" width="3.74" height="0.8" rx="0.4" transform="translate(38.33 -14.41) rotate(90)"/><path class="cls-1" d="M24.31,14.13V11.19a.4.4,0,0,1,.37-.4h0a.4.4,0,0,0-.4.4v2.94a.4.4,0,0,0,.4.4h0A.39.39,0,0,1,24.31,14.13Z" transform="translate(1.02 -2.42)"/><path class="cls-1" d="M25,14.13V11.19a.38.38,0,0,0-.09-.25.25.25,0,0,0-.38,0,.38.38,0,0,0-.09.25v2.94a.34.34,0,0,0,.09.24.23.23,0,0,0,.38,0A.34.34,0,0,0,25,14.13Z" transform="translate(1.02 -2.42)"/><path class="cls-5" d="M24.49,14.33a23.55,23.55,0,0,1,0-3.36c.11.12.28.21.41.07v.34c-.06-.23-.17-.13-.23-.13a18.83,18.83,0,0,0,0,2.81c.06,0,.17.1.23-.13v.34C24.77,14.12,24.6,14.21,24.49,14.33Z" transform="translate(1.02 -2.42)"/><polygon class="cls-1" points="14.58 18.93 14.4 18.99 14.39 19.19 14.55 19.21 14.58 18.93"/><polygon class="cls-2" points="14.58 18.93 14.4 18.99 14.41 18.89 14.59 18.73 14.58 18.93"/><path class="cls-2" d="M13.55,21.83a.21.21,0,0,0,.12,0h0a.22.22,0,0,0,.2-.21V20.09a.22.22,0,0,0-.2-.21h0a.2.2,0,0,0-.21.21v1.56A.21.21,0,0,0,13.55,21.83Z" transform="translate(1.02 -2.42)"/><path class="cls-3" d="M13.5,21.72V20.16a.21.21,0,0,1,.21-.21h0a.21.21,0,0,1,.21.21v1.56a.21.21,0,0,1-.21.21h0A.21.21,0,0,1,13.5,21.72Z" transform="translate(1.02 -2.42)"/><path class="cls-1" d="M13.53,21.72V20.16a.22.22,0,0,1,.2-.21h0a.21.21,0,0,0-.21.21v1.56a.21.21,0,0,0,.21.21h0A.22.22,0,0,1,13.53,21.72Z" transform="translate(1.02 -2.42)"/><path class="cls-1" d="M13.88,21.72V20.16a.19.19,0,0,0-.05-.13.12.12,0,0,0-.2,0,.19.19,0,0,0-.05.13v1.56a.21.21,0,0,0,.05.13.12.12,0,0,0,.2,0A.21.21,0,0,0,13.88,21.72Z" transform="translate(1.02 -2.42)"/><polygon class="cls-1" points="11.39 18.93 11.57 18.99 11.58 19.19 11.42 19.21 11.39 18.93"/><polygon class="cls-2" points="11.39 18.93 11.57 18.99 11.56 18.89 11.38 18.73 11.39 18.93"/><path class="cls-2" d="M10.37,21.83a.21.21,0,0,1-.12,0h0a.22.22,0,0,1-.2-.21V20.09a.22.22,0,0,1,.2-.21h0a.2.2,0,0,1,.21.21v1.56A.21.21,0,0,1,10.37,21.83Z" transform="translate(1.02 -2.42)"/><path class="cls-3" d="M10.42,21.72V20.16a.21.21,0,0,0-.21-.21h0a.21.21,0,0,0-.21.21v1.56a.21.21,0,0,0,.21.21h0A.21.21,0,0,0,10.42,21.72Z" transform="translate(1.02 -2.42)"/><path class="cls-1" d="M10.39,21.72V20.16a.22.22,0,0,0-.2-.21h0a.21.21,0,0,1,.21.21v1.56a.21.21,0,0,1-.21.21h0A.22.22,0,0,0,10.39,21.72Z" transform="translate(1.02 -2.42)"/><path class="cls-1" d="M10,21.72V20.16a.19.19,0,0,1,.05-.13.12.12,0,0,1,.2,0,.19.19,0,0,1,.05.13v1.56a.21.21,0,0,1-.05.13.12.12,0,0,1-.2,0A.21.21,0,0,1,10,21.72Z" transform="translate(1.02 -2.42)"/><path class="cls-3" d="M10.53,21.71H13.4l0-2.18a.24.24,0,0,0-.24-.24H10.77a.24.24,0,0,0-.24.24Z" transform="translate(1.02 -2.42)"/><path class="cls-1" d="M10.77,19.49h2.36c.13,0,.24,0,.24.17h0a.24.24,0,0,0-.24-.24H10.77a.24.24,0,0,0-.24.24h0C10.53,19.53,10.64,19.49,10.77,19.49Z" transform="translate(1.02 -2.42)"/><path class="cls-2" d="M10.77,19.42h2.36a.24.24,0,0,1,.24.24v-.13a.24.24,0,0,0-.24-.24H10.77a.24.24,0,0,0-.24.24v.13A.24.24,0,0,1,10.77,19.42Z" transform="translate(1.02 -2.42)"/><path class="cls-4" d="M11,21.54h2a.36.36,0,0,0,.37-.34V20a.36.36,0,0,0-.37-.34H11a.36.36,0,0,0-.37.34V21.2A.36.36,0,0,0,11,21.54Z" transform="translate(1.02 -2.42)"/><path class="cls-5" d="M11,19.61h2a.36.36,0,0,1,.37.34v.11a.36.36,0,0,0-.37-.34H11a.36.36,0,0,0-.37.34V20A.36.36,0,0,1,11,19.61Z" transform="translate(1.02 -2.42)"/><path class="cls-2" d="M11,21.54h2a.36.36,0,0,0,.37-.34v-.11a.37.37,0,0,1-.37.35H11a.37.37,0,0,1-.37-.35v.11A.36.36,0,0,0,11,21.54Z" transform="translate(1.02 -2.42)"/><path class="cls-2" d="M13.73,22.34c-.08-.19-.26-.72-.41-.72H10.6c-.15,0-.31.52-.4.71Z" transform="translate(1.02 -2.42)"/><rect class="cls-3" x="10.1" y="22.2" width="3.74" height="0.8" rx="0.4" transform="translate(24.96 42.78) rotate(180)"/><path class="cls-1" d="M10.5,22.27h2.93a.39.39,0,0,1,.4.36v0a.4.4,0,0,0-.4-.4H10.5a.4.4,0,0,0-.4.4v0A.4.4,0,0,1,10.5,22.27Z" transform="translate(1.02 -2.42)"/><path class="cls-1" d="M10.5,22.91h2.93a.41.41,0,0,0,.25-.08.26.26,0,0,0,0-.39.42.42,0,0,0-.25-.09H10.5a.42.42,0,0,0-.25.09.26.26,0,0,0,0,.39A.41.41,0,0,0,10.5,22.91Z" transform="translate(1.02 -2.42)"/><path class="cls-5" d="M10.29,22.45a23.55,23.55,0,0,1,3.36,0c-.12.11-.21.28-.07.41h-.34c.24-.05.13-.17.13-.22a18.69,18.69,0,0,0-2.8,0c0,.05-.11.17.13.22h-.34C10.5,22.73,10.41,22.56,10.29,22.45Z" transform="translate(1.02 -2.42)"/><polygon class="cls-1" points="14.58 1.65 14.4 1.59 14.39 1.39 14.55 1.37 14.58 1.65"/><polygon class="cls-2" points="14.58 1.65 14.4 1.59 14.41 1.69 14.59 1.84 14.58 1.65"/><path class="cls-2" d="M13.55,3.59a.21.21,0,0,1,.12,0h0a.22.22,0,0,1,.2.21V5.33a.22.22,0,0,1-.2.21h0a.2.2,0,0,1-.21-.21V3.77A.21.21,0,0,1,13.55,3.59Z" transform="translate(1.02 -2.42)"/><path class="cls-3" d="M13.5,3.7V5.26a.21.21,0,0,0,.21.21h0a.21.21,0,0,0,.21-.21V3.7a.21.21,0,0,0-.21-.21h0A.21.21,0,0,0,13.5,3.7Z" transform="translate(1.02 -2.42)"/><path class="cls-1" d="M13.53,3.7V5.26a.22.22,0,0,0,.2.21h0a.21.21,0,0,1-.21-.21V3.7a.21.21,0,0,1,.21-.21h0A.22.22,0,0,0,13.53,3.7Z" transform="translate(1.02 -2.42)"/><path class="cls-1" d="M13.88,3.7V5.26a.19.19,0,0,1-.05.13.12.12,0,0,1-.2,0,.19.19,0,0,1-.05-.13V3.7a.21.21,0,0,1,.05-.13.12.12,0,0,1,.2,0A.21.21,0,0,1,13.88,3.7Z" transform="translate(1.02 -2.42)"/><polygon class="cls-1" points="11.39 1.65 11.57 1.59 11.58 1.39 11.42 1.37 11.39 1.65"/><polygon class="cls-2" points="11.39 1.65 11.57 1.59 11.56 1.69 11.38 1.84 11.39 1.65"/><path class="cls-2" d="M10.37,3.59a.21.21,0,0,0-.12,0h0a.22.22,0,0,0-.2.21V5.33a.22.22,0,0,0,.2.21h0a.2.2,0,0,0,.21-.21V3.77A.21.21,0,0,0,10.37,3.59Z" transform="translate(1.02 -2.42)"/><path class="cls-3" d="M10.42,3.7V5.26a.21.21,0,0,1-.21.21h0A.21.21,0,0,1,10,5.26V3.7a.21.21,0,0,1,.21-.21h0A.21.21,0,0,1,10.42,3.7Z" transform="translate(1.02 -2.42)"/><path class="cls-1" d="M10.39,3.7V5.26a.22.22,0,0,1-.2.21h0a.21.21,0,0,0,.21-.21V3.7a.21.21,0,0,0-.21-.21h0A.22.22,0,0,1,10.39,3.7Z" transform="translate(1.02 -2.42)"/><path class="cls-1" d="M10,3.7V5.26a.19.19,0,0,0,.05.13.12.12,0,0,0,.2,0,.19.19,0,0,0,.05-.13V3.7a.21.21,0,0,0-.05-.13.12.12,0,0,0-.2,0A.21.21,0,0,0,10,3.7Z" transform="translate(1.02 -2.42)"/><path class="cls-3" d="M10.53,3.71H13.4l0,2.18a.24.24,0,0,1-.24.24H10.77a.24.24,0,0,1-.24-.24Z" transform="translate(1.02 -2.42)"/><path class="cls-1" d="M10.77,5.94h2.36c.13,0,.24-.05.24-.18h0a.24.24,0,0,1-.24.24H10.77a.24.24,0,0,1-.24-.24h0C10.53,5.89,10.64,5.94,10.77,5.94Z" transform="translate(1.02 -2.42)"/><path class="cls-2" d="M10.77,6h2.36a.24.24,0,0,0,.24-.24v.13a.24.24,0,0,1-.24.24H10.77a.24.24,0,0,1-.24-.24V5.76A.24.24,0,0,0,10.77,6Z" transform="translate(1.02 -2.42)"/><path class="cls-4" d="M11,3.88h2a.36.36,0,0,1,.37.34V5.47a.36.36,0,0,1-.37.34H11a.36.36,0,0,1-.37-.34V4.22A.36.36,0,0,1,11,3.88Z" transform="translate(1.02 -2.42)"/><path class="cls-5" d="M11,5.81h2a.36.36,0,0,0,.37-.34V5.36A.36.36,0,0,1,13,5.7H11a.36.36,0,0,1-.37-.34v.11A.36.36,0,0,0,11,5.81Z" transform="translate(1.02 -2.42)"/><path class="cls-2" d="M11,3.88h2a.36.36,0,0,1,.37.34v.11A.36.36,0,0,0,13,4H11a.36.36,0,0,0-.37.34V4.22A.36.36,0,0,1,11,3.88Z" transform="translate(1.02 -2.42)"/><path class="cls-2" d="M13.73,3.09c-.08.18-.26.71-.41.71H10.6c-.15,0-.31-.52-.4-.71Z" transform="translate(1.02 -2.42)"/><path class="cls-3" d="M10.5,3.22h2.93a.4.4,0,0,0,.4-.4h0a.4.4,0,0,0-.4-.4H10.5a.4.4,0,0,0-.4.4h0A.4.4,0,0,0,10.5,3.22Z" transform="translate(1.02 -2.42)"/><path class="cls-1" d="M10.5,3.16h2.93a.4.4,0,0,0,.4-.37v0a.4.4,0,0,1-.4.4H10.5a.4.4,0,0,1-.4-.4v0A.41.41,0,0,0,10.5,3.16Z" transform="translate(1.02 -2.42)"/><path class="cls-1" d="M10.5,2.51h2.93a.37.37,0,0,1,.25.09.25.25,0,0,1,0,.38.42.42,0,0,1-.25.09H10.5A.42.42,0,0,1,10.25,3a.25.25,0,0,1,0-.38A.37.37,0,0,1,10.5,2.51Z" transform="translate(1.02 -2.42)"/><path class="cls-5" d="M10.29,3a23.55,23.55,0,0,0,3.36,0c-.12-.1-.21-.28-.07-.4h-.34c.24.06.13.17.13.22a18.69,18.69,0,0,1-2.8,0s-.11-.16.13-.22h-.34C10.5,2.69,10.41,2.87,10.29,3Z" transform="translate(1.02 -2.42)"/><polygon class="cls-1" points="4.23 16.59 4.08 16.48 3.91 16.6 3.98 16.73 4.23 16.59"/><polygon class="cls-2" points="4.23 16.59 4.08 16.48 4.16 16.44 4.4 16.49 4.23 16.59"/><path class="cls-2" d="M2.82,19.29a.19.19,0,0,0,0,.12h0a.22.22,0,0,0,.29,0l1.26-.92a.21.21,0,0,0,0-.28h0v0h0a.23.23,0,0,0-.1-.07.21.21,0,0,0-.2,0l-1.26.91A.23.23,0,0,0,2.82,19.29Z" transform="translate(1.02 -2.42)"/><path class="cls-3" d="M2.88,19.19l1.26-.92a.21.21,0,0,1,.3.05h0a.23.23,0,0,1-.05.3l-1.26.91a.22.22,0,0,1-.3,0h0A.21.21,0,0,1,2.88,19.19Z" transform="translate(1.02 -2.42)"/><path class="cls-1" d="M2.9,19.22l1.26-.92a.2.2,0,0,1,.28,0h0a.21.21,0,0,0-.3-.05l-1.26.92a.21.21,0,0,0,0,.3h0A.21.21,0,0,1,2.9,19.22Z" transform="translate(1.02 -2.42)"/><path class="cls-1" d="M3.1,19.49l1.26-.91a.2.2,0,0,0,.08-.12.13.13,0,0,0-.12-.16.2.2,0,0,0-.13,0l-1.27.92a.23.23,0,0,0-.08.11.13.13,0,0,0,.12.16A.18.18,0,0,0,3.1,19.49Z" transform="translate(1.02 -2.42)"/><polygon class="cls-1" points="2.36 14.02 2.42 14.2 2.25 14.32 2.15 14.21 2.36 14.02"/><polygon class="cls-2" points="2.36 14.02 2.42 14.2 2.49 14.13 2.51 13.89 2.36 14.02"/><path class="cls-2" d="M1,16.72a.23.23,0,0,1-.1-.07h0v0h0a.22.22,0,0,1,.06-.28l1.26-.92a.22.22,0,0,1,.29,0h0a.25.25,0,0,1,0,.12.24.24,0,0,1-.09.18l-1.26.91A.21.21,0,0,1,1,16.72Z" transform="translate(1.02 -2.42)"/><path class="cls-3" d="M1.07,16.7l1.26-.92a.23.23,0,0,0,0-.3h0a.22.22,0,0,0-.3,0l-1.26.91a.21.21,0,0,0,0,.3h0A.21.21,0,0,0,1.07,16.7Z" transform="translate(1.02 -2.42)"/><path class="cls-1" d="M1.05,16.67l1.26-.92a.2.2,0,0,0,0-.28h0a.23.23,0,0,1,0,.3l-1.26.92a.21.21,0,0,1-.3-.05h0A.22.22,0,0,0,1.05,16.67Z" transform="translate(1.02 -2.42)"/><path class="cls-1" d="M.84,16.39l1.27-.91a.16.16,0,0,1,.13,0,.13.13,0,0,1,.12.16.2.2,0,0,1-.08.12L1,16.63a.22.22,0,0,1-.13,0,.13.13,0,0,1-.13-.16A.25.25,0,0,1,.84,16.39Z" transform="translate(1.02 -2.42)"/><path class="cls-3" d="M1.14,16.78l1.68,2.33L4.57,17.8a.24.24,0,0,0,0-.34l-1.38-1.9a.24.24,0,0,0-.34-.06Z" transform="translate(1.02 -2.42)"/><path class="cls-1" d="M3.08,15.67l1.39,1.91c.07.1.1.22,0,.3h0a.24.24,0,0,0,.06-.34L3.13,15.63a.24.24,0,0,0-.34-.05h0C2.9,15.5,3,15.56,3.08,15.67Z" transform="translate(1.02 -2.42)"/><path class="cls-2" d="M3.13,15.63l1.39,1.91a.24.24,0,0,1-.06.34l.11-.08a.24.24,0,0,0,0-.34l-1.38-1.9a.24.24,0,0,0-.34-.06l-.11.08A.24.24,0,0,1,3.13,15.63Z" transform="translate(1.02 -2.42)"/><path class="cls-4" d="M1.53,17,2.7,18.64a.36.36,0,0,0,.49.09l1-.73a.35.35,0,0,0,.06-.49L3.09,15.9a.36.36,0,0,0-.49-.09l-1,.73A.34.34,0,0,0,1.53,17Z" transform="translate(1.02 -2.42)"/><path class="cls-5" d="M3.09,15.9l1.17,1.61A.35.35,0,0,1,4.2,18l-.09.06a.35.35,0,0,0,.06-.49L3,16a.36.36,0,0,0-.49-.09l.08-.06A.36.36,0,0,1,3.09,15.9Z" transform="translate(1.02 -2.42)"/><path class="cls-2" d="M1.53,17,2.7,18.64a.36.36,0,0,0,.49.09l.08-.06a.34.34,0,0,1-.48-.09L1.62,17a.35.35,0,0,1,.06-.49l-.08.06A.34.34,0,0,0,1.53,17Z" transform="translate(1.02 -2.42)"/><path class="cls-2" d="M2.51,19.74c.11-.18.43-.63.34-.75l-1.6-2.2c-.09-.12-.6.05-.8.09Z" transform="translate(1.02 -2.42)"/><path class="cls-3" d="M.72,17l1.73,2.38a.4.4,0,0,1-.09.56h0a.4.4,0,0,1-.56-.09L.08,17.51A.39.39,0,0,1,.16,17h0A.4.4,0,0,1,.72,17Z" transform="translate(1.02 -2.42)"/><path class="cls-1" d="M.67,17.08,2.4,19.46a.39.39,0,0,1-.07.53h0a.4.4,0,0,0,.09-.56L.72,17A.4.4,0,0,0,.16,17l0,0A.39.39,0,0,1,.67,17.08Z" transform="translate(1.02 -2.42)"/><path class="cls-1" d="M.15,17.46l1.72,2.38a.48.48,0,0,0,.22.15.25.25,0,0,0,.31-.23.38.38,0,0,0-.08-.25L.6,17.13A.48.48,0,0,0,.38,17a.25.25,0,0,0-.31.23A.38.38,0,0,0,.15,17.46Z" transform="translate(1.02 -2.42)"/><path class="cls-5" d="M.4,17a23,23,0,0,1,2,2.72c-.16,0-.36,0-.38.18l-.2-.27c.18.16.22,0,.26,0A18.53,18.53,0,0,0,.41,17.36s-.2,0-.11.23l-.19-.27C.3,17.36.38,17.18.4,17Z" transform="translate(1.02 -2.42)"/><polygon class="cls-1" points="9.12 18.93 8.93 18.93 8.86 19.12 9 19.18 9.12 18.93"/><polygon class="cls-2" points="9.12 18.93 8.93 18.93 8.97 18.84 9.19 18.75 9.12 18.93"/><path class="cls-2" d="M7.94,21.8a.23.23,0,0,0,.1.07h0a.2.2,0,0,0,.25-.14l.48-1.48A.2.2,0,0,0,8.67,20h0a.29.29,0,0,0-.13,0,.22.22,0,0,0-.14.14L7.91,21.6A.2.2,0,0,0,7.94,21.8Z" transform="translate(1.02 -2.42)"/><path class="cls-3" d="M7.93,21.68l.48-1.48a.23.23,0,0,1,.27-.14h0a.21.21,0,0,1,.13.27l-.48,1.48a.21.21,0,0,1-.27.14h0A.21.21,0,0,1,7.93,21.68Z" transform="translate(1.02 -2.42)"/><path class="cls-1" d="M8,21.69l.48-1.48a.21.21,0,0,1,.25-.14h0a.23.23,0,0,0-.27.14l-.48,1.48a.21.21,0,0,0,.13.27h0A.21.21,0,0,1,8,21.69Z" transform="translate(1.02 -2.42)"/><path class="cls-1" d="M8.29,21.8l.48-1.48a.33.33,0,0,0,0-.14.14.14,0,0,0-.2-.07.21.21,0,0,0-.08.11L8,21.71a.23.23,0,0,0,0,.14.12.12,0,0,0,.19.06A.24.24,0,0,0,8.29,21.8Z" transform="translate(1.02 -2.42)"/><polygon class="cls-1" points="6.09 17.94 6.24 18.05 6.18 18.25 6.03 18.22 6.09 17.94"/><polygon class="cls-2" points="6.09 17.94 6.24 18.05 6.26 17.96 6.13 17.75 6.09 17.94"/><path class="cls-2" d="M4.92,20.82a.2.2,0,0,1-.13,0h0a.21.21,0,0,1-.12-.26l.48-1.49a.22.22,0,0,1,.25-.14h0a.23.23,0,0,1,.1.07.18.18,0,0,1,0,.19l-.48,1.49A.22.22,0,0,1,4.92,20.82Z" transform="translate(1.02 -2.42)"/><path class="cls-3" d="M5,20.73l.48-1.48A.21.21,0,0,0,5.34,19h0a.2.2,0,0,0-.26.14L4.59,20.6a.23.23,0,0,0,.14.27h0A.23.23,0,0,0,5,20.73Z" transform="translate(1.02 -2.42)"/><path class="cls-1" d="M5,20.72l.48-1.48A.21.21,0,0,0,5.33,19h0a.21.21,0,0,1,.14.27L5,20.73a.23.23,0,0,1-.27.14h0A.22.22,0,0,0,5,20.72Z" transform="translate(1.02 -2.42)"/><path class="cls-1" d="M4.64,20.61l.48-1.48A.2.2,0,0,1,5.21,19a.12.12,0,0,1,.19.06.17.17,0,0,1,0,.14l-.48,1.49a.21.21,0,0,1-.08.11.14.14,0,0,1-.2-.07A.22.22,0,0,1,4.64,20.61Z" transform="translate(1.02 -2.42)"/><path class="cls-3" d="M5.11,20.76l2.72.89.65-2.09a.24.24,0,0,0-.16-.3l-2.23-.73a.25.25,0,0,0-.31.16Z" transform="translate(1.02 -2.42)"/><path class="cls-1" d="M6,18.72l2.23.72c.13,0,.22.12.18.25h0a.25.25,0,0,0-.16-.31l-2.23-.73a.25.25,0,0,0-.31.16h0C5.78,18.68,5.9,18.67,6,18.72Z" transform="translate(1.02 -2.42)"/><path class="cls-2" d="M6.05,18.65l2.23.73a.25.25,0,0,1,.16.31l0-.13a.24.24,0,0,0-.16-.3l-2.23-.73a.25.25,0,0,0-.31.16l0,.12A.25.25,0,0,1,6.05,18.65Z" transform="translate(1.02 -2.42)"/><path class="cls-4" d="M5.57,20.73l1.89.61a.35.35,0,0,0,.45-.21L8.3,20a.35.35,0,0,0-.24-.44L6.17,18.9a.35.35,0,0,0-.45.21l-.39,1.18A.36.36,0,0,0,5.57,20.73Z" transform="translate(1.02 -2.42)"/><path class="cls-5" d="M6.17,18.9l1.89.61A.35.35,0,0,1,8.3,20l0,.1A.35.35,0,0,0,8,19.61L6.14,19a.34.34,0,0,0-.45.21l0-.1A.35.35,0,0,1,6.17,18.9Z" transform="translate(1.02 -2.42)"/><path class="cls-2" d="M5.57,20.73l1.89.61a.35.35,0,0,0,.45-.21l0-.1a.33.33,0,0,1-.44.21l-1.89-.61a.35.35,0,0,1-.24-.44l0,.1A.36.36,0,0,0,5.57,20.73Z" transform="translate(1.02 -2.42)"/><path class="cls-2" d="M8,22.34c0-.2,0-.76-.17-.8L5.2,20.69c-.14,0-.45.4-.59.55Z" transform="translate(1.02 -2.42)"/><path class="cls-3" d="M4.92,21.21l2.8.91a.39.39,0,0,1,.25.5H8a.4.4,0,0,1-.5.26L4.68,22a.4.4,0,0,1-.26-.5h0A.4.4,0,0,1,4.92,21.21Z" transform="translate(1.02 -2.42)"/><path class="cls-1" d="M4.9,21.27l2.8.91a.4.4,0,0,1,.26.47v0a.39.39,0,0,0-.25-.5l-2.8-.91a.4.4,0,0,0-.5.26v0A.4.4,0,0,1,4.9,21.27Z" transform="translate(1.02 -2.42)"/><path class="cls-1" d="M4.7,21.89l2.8.91a.46.46,0,0,0,.26,0,.25.25,0,0,0,.12-.37.41.41,0,0,0-.21-.15l-2.79-.91a.42.42,0,0,0-.27,0,.26.26,0,0,0-.12.37A.42.42,0,0,0,4.7,21.89Z" transform="translate(1.02 -2.42)"/><path class="cls-5" d="M4.65,21.38a24.37,24.37,0,0,1,3.2,1c-.15.07-.29.2-.2.37l-.32-.1c.24,0,.18-.12.19-.17a17.72,17.72,0,0,0-2.67-.87c0,.05-.15.13.06.25l-.32-.11C4.76,21.71,4.73,21.52,4.65,21.38Z" transform="translate(1.02 -2.42)"/><polygon class="cls-1" points="9.12 1.56 8.93 1.56 8.86 1.36 9 1.3 9.12 1.56"/><polygon class="cls-2" points="9.12 1.56 8.93 1.56 8.97 1.64 9.19 1.74 9.12 1.56"/><path class="cls-2" d="M7.94,3.53A.23.23,0,0,1,8,3.46h0a.22.22,0,0,1,.25.14l.48,1.49a.21.21,0,0,1-.12.26h0a.2.2,0,0,1-.13,0,.22.22,0,0,1-.14-.14L7.91,3.72A.18.18,0,0,1,7.94,3.53Z" transform="translate(1.02 -2.42)"/><path class="cls-3" d="M7.93,3.64l.48,1.49a.23.23,0,0,0,.27.14h0A.21.21,0,0,0,8.81,5L8.33,3.51a.21.21,0,0,0-.27-.13h0A.2.2,0,0,0,7.93,3.64Z" transform="translate(1.02 -2.42)"/><path class="cls-1" d="M8,3.63l.48,1.49a.23.23,0,0,0,.25.14h0a.23.23,0,0,1-.27-.14L7.93,3.64a.2.2,0,0,1,.13-.26h0A.22.22,0,0,0,8,3.63Z" transform="translate(1.02 -2.42)"/><path class="cls-1" d="M8.29,3.53,8.77,5a.33.33,0,0,1,0,.14.13.13,0,0,1-.2.06.15.15,0,0,1-.08-.11L8,3.62a.22.22,0,0,1,0-.14.12.12,0,0,1,.19-.06A.2.2,0,0,1,8.29,3.53Z" transform="translate(1.02 -2.42)"/><polygon class="cls-1" points="6.09 2.54 6.24 2.43 6.18 2.23 6.03 2.27 6.09 2.54"/><polygon class="cls-2" points="6.09 2.54 6.24 2.43 6.26 2.52 6.13 2.73 6.09 2.54"/><path class="cls-2" d="M4.92,4.51H4.78a.2.2,0,0,0-.12.26l.48,1.48a.2.2,0,0,0,.25.14h0a.23.23,0,0,0,.1-.07.2.2,0,0,0,0-.2L5.06,4.65A.22.22,0,0,0,4.92,4.51Z" transform="translate(1.02 -2.42)"/><path class="cls-3" d="M5,4.6l.48,1.48a.21.21,0,0,1-.14.27h0a.21.21,0,0,1-.26-.14L4.59,4.73a.23.23,0,0,1,.14-.27h0A.21.21,0,0,1,5,4.6Z" transform="translate(1.02 -2.42)"/><path class="cls-1" d="M5,4.61l.48,1.48a.21.21,0,0,1-.12.26h0a.21.21,0,0,0,.14-.27L5,4.6a.21.21,0,0,0-.27-.14h0A.22.22,0,0,1,5,4.61Z" transform="translate(1.02 -2.42)"/><path class="cls-1" d="M4.64,4.71,5.12,6.2a.31.31,0,0,0,.09.11.13.13,0,0,0,.19-.07.15.15,0,0,0,0-.13L4.92,4.62a.18.18,0,0,0-.08-.11.14.14,0,0,0-.2.06A.22.22,0,0,0,4.64,4.71Z" transform="translate(1.02 -2.42)"/><path class="cls-3" d="M5.11,4.57l2.72-.89.65,2.08a.25.25,0,0,1-.16.31L6.09,6.8a.25.25,0,0,1-.31-.16Z" transform="translate(1.02 -2.42)"/><path class="cls-1" d="M6,6.61l2.23-.73c.13,0,.22-.11.18-.24h0A.25.25,0,0,1,8.28,6l-2.23.72a.24.24,0,0,1-.31-.15h0C5.78,6.65,5.9,6.65,6,6.61Z" transform="translate(1.02 -2.42)"/><path class="cls-2" d="M6.05,6.67,8.28,6a.25.25,0,0,0,.16-.31l0,.12a.25.25,0,0,1-.16.31L6.09,6.8a.25.25,0,0,1-.31-.16l0-.12A.24.24,0,0,0,6.05,6.67Z" transform="translate(1.02 -2.42)"/><path class="cls-4" d="M5.57,4.6,7.46,4a.36.36,0,0,1,.45.22L8.3,5.38a.36.36,0,0,1-.24.44l-1.89.61a.35.35,0,0,1-.45-.21L5.33,5A.36.36,0,0,1,5.57,4.6Z" transform="translate(1.02 -2.42)"/><path class="cls-5" d="M6.17,6.43l1.89-.61a.36.36,0,0,0,.24-.44l0-.1A.35.35,0,0,1,8,5.72l-1.89.61a.35.35,0,0,1-.45-.21l0,.1A.35.35,0,0,0,6.17,6.43Z" transform="translate(1.02 -2.42)"/><path class="cls-2" d="M5.57,4.6,7.46,4a.36.36,0,0,1,.45.22l0,.1a.34.34,0,0,0-.44-.22L5.61,4.7a.34.34,0,0,0-.24.43l0-.1A.36.36,0,0,1,5.57,4.6Z" transform="translate(1.02 -2.42)"/><path class="cls-2" d="M8,3c0,.2,0,.75-.17.8L5.2,4.63c-.14,0-.45-.39-.59-.55Z" transform="translate(1.02 -2.42)"/><path class="cls-3" d="M4.92,4.11l2.8-.9A.4.4,0,0,0,8,2.7H8a.39.39,0,0,0-.5-.25l-2.79.9a.41.41,0,0,0-.26.51h0A.39.39,0,0,0,4.92,4.11Z" transform="translate(1.02 -2.42)"/><path class="cls-1" d="M4.9,4.05l2.8-.9A.42.42,0,0,0,8,2.67v0a.4.4,0,0,1-.25.51l-2.8.9a.39.39,0,0,1-.5-.25v0A.39.39,0,0,0,4.9,4.05Z" transform="translate(1.02 -2.42)"/><path class="cls-1" d="M4.7,3.44l2.8-.91a.39.39,0,0,1,.26,0,.24.24,0,0,1,.12.36.42.42,0,0,1-.21.16L4.88,4a.41.41,0,0,1-.27,0,.25.25,0,0,1-.12-.36A.37.37,0,0,1,4.7,3.44Z" transform="translate(1.02 -2.42)"/><path class="cls-5" d="M4.65,3.94a24.33,24.33,0,0,0,3.2-1c-.15-.07-.29-.21-.2-.37l-.32.1c.24,0,.18.12.19.17a18.92,18.92,0,0,1-2.67.87c0-.05-.15-.13.06-.26l-.32.11C4.76,3.61,4.73,3.8,4.65,3.94Z" transform="translate(1.02 -2.42)"/><polygon class="cls-1" points="4.23 3.89 4.08 4 3.91 3.88 3.98 3.75 4.23 3.89"/><polygon class="cls-2" points="4.23 3.89 4.08 4 4.16 4.05 4.4 3.99 4.23 3.89"/><path class="cls-2" d="M2.82,6a.15.15,0,0,1,0-.11h0v0h0a.21.21,0,0,1,.29,0l1.26.92a.2.2,0,0,1,0,.28h0a.25.25,0,0,1-.1.08.24.24,0,0,1-.2,0L2.91,6.21A.21.21,0,0,1,2.82,6Z" transform="translate(1.02 -2.42)"/><path class="cls-3" d="M2.88,6.14l1.26.92a.23.23,0,0,0,.3,0h0a.23.23,0,0,0-.05-.3L3.13,5.79a.23.23,0,0,0-.3,0h0A.21.21,0,0,0,2.88,6.14Z" transform="translate(1.02 -2.42)"/><path class="cls-1" d="M2.9,6.11,4.16,7a.2.2,0,0,0,.28,0V7a.23.23,0,0,1-.3,0L2.88,6.14a.21.21,0,0,1,0-.3h0A.21.21,0,0,0,2.9,6.11Z" transform="translate(1.02 -2.42)"/><path class="cls-1" d="M3.1,5.83l1.26.92a.21.21,0,0,1,.08.11A.14.14,0,0,1,4.32,7a.2.2,0,0,1-.13,0L2.92,6.07A.28.28,0,0,1,2.84,6,.14.14,0,0,1,3,5.79.23.23,0,0,1,3.1,5.83Z" transform="translate(1.02 -2.42)"/><polygon class="cls-1" points="2.36 6.47 2.42 6.29 2.25 6.16 2.15 6.28 2.36 6.47"/><polygon class="cls-2" points="2.36 6.47 2.42 6.29 2.49 6.35 2.51 6.59 2.36 6.47"/><path class="cls-2" d="M1,8.61a.23.23,0,0,0-.1.07h0v0h0A.23.23,0,0,0,.9,9l1.26.92a.23.23,0,0,0,.29,0h0a.28.28,0,0,0,0-.12.23.23,0,0,0-.09-.18L1.15,8.63A.21.21,0,0,0,1,8.61Z" transform="translate(1.02 -2.42)"/><path class="cls-3" d="M1.07,8.63l1.26.92a.22.22,0,0,1,0,.29h0a.21.21,0,0,1-.3.05L.82,9a.2.2,0,0,1,0-.29h0A.21.21,0,0,1,1.07,8.63Z" transform="translate(1.02 -2.42)"/><path class="cls-1" d="M1.05,8.66l1.26.91a.22.22,0,0,1,0,.29l0,0a.22.22,0,0,0,0-.29L1.07,8.63a.21.21,0,0,0-.3,0h0A.22.22,0,0,1,1.05,8.66Z" transform="translate(1.02 -2.42)"/><path class="cls-1" d="M.84,8.93l1.27.92a.2.2,0,0,0,.13,0,.13.13,0,0,0,.12-.16.2.2,0,0,0-.08-.12L1,8.69a.33.33,0,0,0-.13,0,.14.14,0,0,0-.13.17A.23.23,0,0,0,.84,8.93Z" transform="translate(1.02 -2.42)"/><path class="cls-3" d="M1.14,8.54,2.82,6.22,4.57,7.53a.24.24,0,0,1,0,.34L3.24,9.77a.24.24,0,0,1-.34.05Z" transform="translate(1.02 -2.42)"/><path class="cls-1" d="M3.08,9.66,4.47,7.75c.07-.11.1-.22,0-.3h0a.24.24,0,0,1,.06.34L3.13,9.69a.24.24,0,0,1-.34.06h0C2.9,9.83,3,9.76,3.08,9.66Z" transform="translate(1.02 -2.42)"/><path class="cls-2" d="M3.13,9.69l1.39-1.9a.24.24,0,0,0-.06-.34l.11.08a.24.24,0,0,1,0,.34L3.24,9.77a.24.24,0,0,1-.34.05l-.11-.07A.24.24,0,0,0,3.13,9.69Z" transform="translate(1.02 -2.42)"/><path class="cls-4" d="M1.53,8.29,2.7,6.69a.35.35,0,0,1,.49-.1l1,.73a.36.36,0,0,1,.06.5L3.09,9.43a.36.36,0,0,1-.49.09l-1-.73A.35.35,0,0,1,1.53,8.29Z" transform="translate(1.02 -2.42)"/><path class="cls-5" d="M3.09,9.43,4.26,7.82a.36.36,0,0,0-.06-.5l-.09-.06a.36.36,0,0,1,.06.5L3,9.36a.35.35,0,0,1-.49.1l.08.06A.36.36,0,0,0,3.09,9.43Z" transform="translate(1.02 -2.42)"/><path class="cls-2" d="M1.53,8.29,2.7,6.69a.35.35,0,0,1,.49-.1l.08.06a.34.34,0,0,0-.48.1L1.62,8.35a.36.36,0,0,0,.06.5L1.6,8.79A.35.35,0,0,1,1.53,8.29Z" transform="translate(1.02 -2.42)"/><path class="cls-2" d="M2.51,5.59c.11.18.43.63.34.75l-1.6,2.2c-.09.12-.6,0-.8-.09Z" transform="translate(1.02 -2.42)"/><path class="cls-3" d="M.72,8.28,2.45,5.91a.4.4,0,0,0-.09-.56h0a.4.4,0,0,0-.56.09L.08,7.81a.41.41,0,0,0,.08.56h0A.4.4,0,0,0,.72,8.28Z" transform="translate(1.02 -2.42)"/><path class="cls-1" d="M.67,8.25,2.4,5.87a.4.4,0,0,0-.07-.54l0,0a.4.4,0,0,1,.09.56L.72,8.28a.4.4,0,0,1-.56.09l0,0A.39.39,0,0,0,.67,8.25Z" transform="translate(1.02 -2.42)"/><path class="cls-1" d="M.15,7.87,1.87,5.49a.37.37,0,0,1,.22-.15.25.25,0,0,1,.31.23.41.41,0,0,1-.08.25L.6,8.19a.37.37,0,0,1-.22.15.24.24,0,0,1-.31-.22A.38.38,0,0,1,.15,7.87Z" transform="translate(1.02 -2.42)"/><path class="cls-5" d="M.4,8.31a23,23,0,0,0,2-2.72c-.16,0-.36,0-.38-.19l-.2.27c.18-.15.22,0,.26,0A19.33,19.33,0,0,1,.41,8S.21,8,.3,7.73L.11,8C.3,8,.38,8.15.4,8.31Z" transform="translate(1.02 -2.42)"/><polygon class="cls-1" points="1.65 8.65 1.59 8.83 1.39 8.83 1.37 8.68 1.65 8.65"/><polygon class="cls-2" points="1.65 8.65 1.59 8.83 1.69 8.82 1.84 8.63 1.65 8.65"/><path class="cls-2" d="M.15,11.07a.21.21,0,0,1,0-.12h0a.22.22,0,0,1,.21-.2H1.89a.22.22,0,0,1,.21.2h0a.21.21,0,0,1,0,.12.21.21,0,0,1-.17.1H.32A.21.21,0,0,1,.15,11.07Z" transform="translate(1.02 -2.42)"/><path class="cls-3" d="M.26,11.12H1.82A.21.21,0,0,0,2,10.91H2a.21.21,0,0,0-.21-.21H.26a.21.21,0,0,0-.22.21H0A.21.21,0,0,0,.26,11.12Z" transform="translate(1.02 -2.42)"/><path class="cls-1" d="M.26,11.09H1.82a.22.22,0,0,0,.21-.2v0a.21.21,0,0,1-.21.21H.26A.21.21,0,0,1,0,10.91v0A.22.22,0,0,0,.26,11.09Z" transform="translate(1.02 -2.42)"/><path class="cls-1" d="M.26,10.75H1.82a.2.2,0,0,1,.13,0A.14.14,0,0,1,2,11a.2.2,0,0,1-.13,0H.26a.23.23,0,0,1-.14,0,.15.15,0,0,1,0-.21A.23.23,0,0,1,.26,10.75Z" transform="translate(1.02 -2.42)"/><polygon class="cls-1" points="1.65 11.84 1.59 11.66 1.39 11.65 1.37 11.8 1.65 11.84"/><polygon class="cls-2" points="1.65 11.84 1.59 11.66 1.69 11.67 1.84 11.85 1.65 11.84"/><path class="cls-2" d="M.15,14.25a.28.28,0,0,0,0,.12h0v0h0a.21.21,0,0,0,.21.19H1.89a.21.21,0,0,0,.21-.19h0v0h0a.28.28,0,0,0,0-.12.22.22,0,0,0-.17-.09H.32A.22.22,0,0,0,.15,14.25Z" transform="translate(1.02 -2.42)"/><path class="cls-3" d="M.26,14.2H1.82a.22.22,0,0,1,.21.22H2a.22.22,0,0,1-.21.21H.26A.22.22,0,0,1,0,14.42H0A.22.22,0,0,1,.26,14.2Z" transform="translate(1.02 -2.42)"/><path class="cls-1" d="M.26,14.24H1.82a.21.21,0,0,1,.21.19H2a.22.22,0,0,0-.21-.22H.26a.22.22,0,0,0-.22.22H0A.21.21,0,0,1,.26,14.24Z" transform="translate(1.02 -2.42)"/><path class="cls-1" d="M.26,14.58H1.82A.21.21,0,0,0,2,14.53a.13.13,0,0,0,0-.2.21.21,0,0,0-.13-.05H.26a.24.24,0,0,0-.14.05.13.13,0,0,0,0,.2A.24.24,0,0,0,.26,14.58Z" transform="translate(1.02 -2.42)"/><path class="cls-3" d="M.26,14.09V11.22l2.18,0a.24.24,0,0,1,.24.25v2.35a.24.24,0,0,1-.24.24Z" transform="translate(1.02 -2.42)"/><path class="cls-1" d="M2.49,13.85V11.5c0-.14,0-.25-.18-.25h0a.24.24,0,0,1,.24.25v2.35a.24.24,0,0,1-.24.24h0C2.45,14.09,2.49,14,2.49,13.85Z" transform="translate(1.02 -2.42)"/><path class="cls-2" d="M2.55,13.85V11.5a.24.24,0,0,0-.24-.25h.13a.24.24,0,0,1,.24.25v2.35a.24.24,0,0,1-.24.24H2.31A.24.24,0,0,0,2.55,13.85Z" transform="translate(1.02 -2.42)"/><path class="cls-4" d="M.44,13.66v-2a.35.35,0,0,1,.34-.36H2a.35.35,0,0,1,.34.36v2A.35.35,0,0,1,2,14H.78A.35.35,0,0,1,.44,13.66Z" transform="translate(1.02 -2.42)"/><path class="cls-5" d="M2.36,13.66v-2A.35.35,0,0,0,2,11.31h-.1a.35.35,0,0,1,.34.36v2a.35.35,0,0,1-.34.36H2A.35.35,0,0,0,2.36,13.66Z" transform="translate(1.02 -2.42)"/><path class="cls-2" d="M.44,13.66v-2a.35.35,0,0,1,.34-.36h.1a.35.35,0,0,0-.34.36v2A.35.35,0,0,0,.88,14H.78A.35.35,0,0,1,.44,13.66Z" transform="translate(1.02 -2.42)"/><path class="cls-2" d="M-.36,10.89c.19.09.71.26.71.41V14c0,.15-.51.31-.7.4Z" transform="translate(1.02 -2.42)"/><path class="cls-3" d="M-.23,14.13V11.19a.39.39,0,0,0-.4-.4h0a.39.39,0,0,0-.39.4v2.94a.39.39,0,0,0,.39.4h0A.39.39,0,0,0-.23,14.13Z" transform="translate(1.02 -2.42)"/><path class="cls-1" d="M-.29,14.13V11.19a.4.4,0,0,0-.37-.4h0a.39.39,0,0,1,.4.4v2.94a.39.39,0,0,1-.4.4h0A.39.39,0,0,0-.29,14.13Z" transform="translate(1.02 -2.42)"/><path class="cls-1" d="M-.94,14.13V11.19a.45.45,0,0,1,.09-.25.25.25,0,0,1,.38,0,.38.38,0,0,1,.09.25v2.94a.34.34,0,0,1-.09.24.23.23,0,0,1-.38,0A.39.39,0,0,1-.94,14.13Z" transform="translate(1.02 -2.42)"/><path class="cls-5" d="M-.47,14.33A23.55,23.55,0,0,0-.47,11c-.11.12-.28.21-.41.07v.34c.06-.23.18-.13.23-.13a18.83,18.83,0,0,1,0,2.81s-.17.1-.23-.13v.34C-.75,14.12-.58,14.21-.47,14.33Z" transform="translate(1.02 -2.42)"/><path class="cls-6" d="M21.67,12.7a6.87,6.87,0,0,0-6.86-6.87H9.26a6.87,6.87,0,0,0,0,13.74h5.55A6.87,6.87,0,0,0,21.67,12.7Zm-11.8,1a1,1,0,0,1,0-1.92h4.32a1,1,0,0,1,0,1.92Z" transform="translate(1.02 -2.42)"/><path class="cls-7" d="M21.45,12.7a6.65,6.65,0,0,0-6.64-6.64H9.26a6.64,6.64,0,0,0,0,13.28h5.55A6.65,6.65,0,0,0,21.45,12.7ZM9.87,13.84a1.14,1.14,0,0,1,0-2.28h4.32a1.14,1.14,0,1,1,0,2.28Z" transform="translate(1.02 -2.42)"/><path class="cls-6" d="M8.6,12.7a1.3,1.3,0,0,1,.83-1.21,1.24,1.24,0,0,0,0,2.42A1.31,1.31,0,0,1,8.6,12.7Z" transform="translate(1.02 -2.42)"/><path class="cls-8" d="M2.81,12.7a6.47,6.47,0,0,1,6-6.44,6.48,6.48,0,0,0,0,12.88A6.47,6.47,0,0,1,2.81,12.7Z" transform="translate(1.02 -2.42)"/><path class="cls-8" d="M15.46,12.7a1.28,1.28,0,0,0-.83-1.21,1.24,1.24,0,0,1,0,2.42A1.29,1.29,0,0,0,15.46,12.7Z" transform="translate(1.02 -2.42)"/><path class="cls-6" d="M21.25,12.7a6.46,6.46,0,0,0-6-6.44,6.48,6.48,0,0,1,0,12.88A6.47,6.47,0,0,0,21.25,12.7Z" transform="translate(1.02 -2.42)"/></g></svg>