<svg id="Layer_1" data-name="Layer 1" xmlns="http://www.w3.org/2000/svg" viewBox="0 0 23.53 14.03"><defs><style>.cls-1{fill:#a8a8a8;}.cls-2{fill:#494949;}.cls-3{fill:#686868;}.cls-4{fill:#4a4a4a;}.cls-5{fill:#696969;}.cls-6{fill:#a9a9a9;}.cls-7{fill:#d4d4d4;}.cls-8{fill:#828282;}.cls-9{fill:#984626;}.cls-10{fill:#bf5f3d;}.cls-11{fill:#ffc2ad;}</style></defs><g id="Meeting_Table_1" data-name="Meeting Table 1"><g id="Chair_S" data-name="Chair S"><polygon class="cls-1" points="1.97 8.96 2.14 8.51 1.86 8.5 1.58 8.91 1.97 8.96"/><polygon class="cls-2" points="1.97 8.96 2.14 8.51 2.27 8.52 2.23 8.98 1.97 8.96"/><path class="cls-2" d="M1.24,14a.31.31,0,0,0-.05.17h0v0h0a.29.29,0,0,0,.29.27H3.64a.29.29,0,0,0,.29-.27h0v0h0A.31.31,0,0,0,3.88,14a.28.28,0,0,0-.24-.13H1.49A.3.3,0,0,0,1.24,14Z" transform="translate(0.06 -5)"/><path class="cls-3" d="M1.39,13.88H3.54a.29.29,0,0,1,.29.29h0a.29.29,0,0,1-.29.3H1.39a.29.29,0,0,1-.29-.3h0A.29.29,0,0,1,1.39,13.88Z" transform="translate(0.06 -5)"/><path class="cls-1" d="M1.39,13.93H3.54a.29.29,0,0,1,.29.27v0a.29.29,0,0,0-.29-.29H1.39a.29.29,0,0,0-.29.29v0A.29.29,0,0,1,1.39,13.93Z" transform="translate(0.06 -5)"/><path class="cls-1" d="M1.39,14.4H3.54a.28.28,0,0,0,.18-.06.18.18,0,0,0,0-.28A.29.29,0,0,0,3.54,14H1.39a.29.29,0,0,0-.18.07.18.18,0,0,0,0,.28A.28.28,0,0,0,1.39,14.4Z" transform="translate(0.06 -5)"/><polygon class="cls-1" points="1.97 4.95 2.14 5.4 1.86 5.41 1.58 5 1.97 4.95"/><polygon class="cls-2" points="1.97 4.95 2.14 5.4 2.27 5.39 2.23 4.93 1.97 4.95"/><path class="cls-2" d="M1.24,10a.34.34,0,0,1-.05-.17h0v0h0a.29.29,0,0,1,.29-.27H3.64a.29.29,0,0,1,.29.27h0v0h0a.34.34,0,0,1-.05.17.31.31,0,0,1-.24.13H1.49A.33.33,0,0,1,1.24,10Z" transform="translate(0.06 -5)"/><path class="cls-3" d="M1.39,10H3.54a.29.29,0,0,0,.29-.3h0a.29.29,0,0,0-.29-.29H1.39a.29.29,0,0,0-.29.29h0A.29.29,0,0,0,1.39,10Z" transform="translate(0.06 -5)"/><path class="cls-1" d="M1.39,10H3.54a.29.29,0,0,0,.29-.27v0a.29.29,0,0,1-.29.3H1.39a.29.29,0,0,1-.29-.3v0A.29.29,0,0,0,1.39,10Z" transform="translate(0.06 -5)"/><path class="cls-1" d="M1.39,9.51H3.54a.28.28,0,0,1,.18.06.18.18,0,0,1,0,.28.28.28,0,0,1-.18.06H1.39a.28.28,0,0,1-.18-.06.18.18,0,0,1,0-.28A.28.28,0,0,1,1.39,9.51Z" transform="translate(0.06 -5)"/><polygon class="cls-4" points="1.01 6.12 1.8 6.3 1.8 7.76 1.01 7.94 1.01 6.12"/><polygon class="cls-5" points="1.01 6.38 1.8 6.51 1.8 7.55 1.01 7.68 1.01 6.38"/><path class="cls-4" d="M4.76,13.37a6.75,6.75,0,0,0,0-2.83.3.3,0,0,0-.25-.25,5.49,5.49,0,0,0-2.55,0,.32.32,0,0,0-.25.25,7.1,7.1,0,0,0,0,2.83.35.35,0,0,0,.25.26,5.78,5.78,0,0,0,2.55,0A.32.32,0,0,0,4.76,13.37Z" transform="translate(0.06 -5)"/><path class="cls-6" d="M4.63,13.25a6.28,6.28,0,0,0,0-2.59.28.28,0,0,0-.23-.22,5.05,5.05,0,0,0-2.32,0,.28.28,0,0,0-.23.22,6.28,6.28,0,0,0,0,2.59.29.29,0,0,0,.23.23,5.05,5.05,0,0,0,2.32,0A.29.29,0,0,0,4.63,13.25Z" transform="translate(0.06 -5)"/><path class="cls-7" d="M4.26,13.48a.3.3,0,0,0,.23-.23,6.64,6.64,0,0,0,0-2.59.29.29,0,0,0-.23-.22,6.49,6.49,0,0,0-1.09-.14,6.23,6.23,0,0,1,1.23.14.28.28,0,0,1,.23.22,6.28,6.28,0,0,1,0,2.59.29.29,0,0,1-.23.23,6.12,6.12,0,0,1-1.23.13A7.52,7.52,0,0,0,4.26,13.48Z" transform="translate(0.06 -5)"/><path class="cls-5" d="M2.22,13.48A.29.29,0,0,1,2,13.25a6.28,6.28,0,0,1,0-2.59.28.28,0,0,1,.23-.22,6.49,6.49,0,0,1,1.09-.14,6.23,6.23,0,0,0-1.23.14.28.28,0,0,0-.23.22,6.28,6.28,0,0,0,0,2.59.29.29,0,0,0,.23.23,6.12,6.12,0,0,0,1.23.13A7.52,7.52,0,0,1,2.22,13.48Z" transform="translate(0.06 -5)"/><path class="cls-8" d="M.9,14l-.35.2A9.28,9.28,0,0,1,.36,12,9.18,9.18,0,0,1,.55,9.7l.35.19a.25.25,0,0,1,.13.22V13.8A.25.25,0,0,1,.9,14Z" transform="translate(0.06 -5)"/><path class="cls-6" d="M-.06,12a8.33,8.33,0,0,0,.2,2.11.16.16,0,0,0,.14.13l.24,0a.06.06,0,0,0,.06-.07A8.51,8.51,0,0,1,.36,12,8.47,8.47,0,0,1,.58,9.76a.06.06,0,0,0-.06-.08l-.24,0a.16.16,0,0,0-.14.13A8.29,8.29,0,0,0-.06,12Z" transform="translate(0.06 -5)"/><path class="cls-7" d="M.16,9.88c.08.13.23.08.33,0a5.82,5.82,0,0,0-.18,1.64,8.54,8.54,0,0,0,.2,2.57S.32,13.85.2,14a2.06,2.06,0,0,1-.08-.27s.19.23.24,0-.07-.37-.1-.67a11.47,11.47,0,0,1,0-2.42c.08-.62.07-.64,0-.65s-.11-.11-.19.07Z" transform="translate(0.06 -5)"/></g><g id="Chair_S-2" data-name="Chair S"><polygon class="cls-1" points="21.56 8.96 21.39 8.51 21.67 8.5 21.95 8.91 21.56 8.96"/><polygon class="cls-2" points="21.56 8.96 21.39 8.51 21.25 8.52 21.3 8.98 21.56 8.96"/><path class="cls-2" d="M22.15,14a.31.31,0,0,1,.05.17h0v0h0a.29.29,0,0,1-.29.27H19.76a.29.29,0,0,1-.29-.27h0v0h0a.31.31,0,0,1,.05-.17.28.28,0,0,1,.24-.13h2.15A.28.28,0,0,1,22.15,14Z" transform="translate(0.06 -5)"/><path class="cls-3" d="M22,13.88H19.86a.29.29,0,0,0-.3.29h0a.29.29,0,0,0,.3.3H22a.29.29,0,0,0,.29-.3h0A.29.29,0,0,0,22,13.88Z" transform="translate(0.06 -5)"/><path class="cls-1" d="M22,13.93H19.86a.3.3,0,0,0-.3.27v0a.29.29,0,0,1,.3-.29H22a.29.29,0,0,1,.29.29v0A.29.29,0,0,0,22,13.93Z" transform="translate(0.06 -5)"/><path class="cls-1" d="M22,14.4H19.86a.31.31,0,0,1-.19-.06.18.18,0,0,1,0-.28.32.32,0,0,1,.19-.07H22a.31.31,0,0,1,.18.07.18.18,0,0,1,0,.28A.3.3,0,0,1,22,14.4Z" transform="translate(0.06 -5)"/><polygon class="cls-1" points="21.56 4.95 21.39 5.4 21.67 5.41 21.95 5 21.56 4.95"/><polygon class="cls-2" points="21.56 4.95 21.39 5.4 21.25 5.39 21.3 4.93 21.56 4.95"/><path class="cls-2" d="M22.15,10a.34.34,0,0,0,.05-.17h0v0h0a.29.29,0,0,0-.29-.27H19.76a.29.29,0,0,0-.29.27h0v0h0a.34.34,0,0,0,.05.17.31.31,0,0,0,.24.13h2.15A.31.31,0,0,0,22.15,10Z" transform="translate(0.06 -5)"/><path class="cls-3" d="M22,10H19.86a.29.29,0,0,1-.3-.3h0a.29.29,0,0,1,.3-.29H22a.29.29,0,0,1,.29.29h0A.29.29,0,0,1,22,10Z" transform="translate(0.06 -5)"/><path class="cls-1" d="M22,10H19.86a.3.3,0,0,1-.3-.27v0a.29.29,0,0,0,.3.3H22a.29.29,0,0,0,.29-.3v0A.29.29,0,0,1,22,10Z" transform="translate(0.06 -5)"/><path class="cls-1" d="M22,9.51H19.86a.31.31,0,0,0-.19.06.18.18,0,0,0,0,.28.31.31,0,0,0,.19.06H22a.3.3,0,0,0,.18-.06.18.18,0,0,0,0-.28A.3.3,0,0,0,22,9.51Z" transform="translate(0.06 -5)"/><polygon class="cls-4" points="22.51 6.12 21.73 6.3 21.73 7.76 22.51 7.94 22.51 6.12"/><polygon class="cls-5" points="22.51 6.38 21.73 6.51 21.73 7.55 22.51 7.68 22.51 6.38"/><path class="cls-4" d="M18.63,13.37a7.1,7.1,0,0,1,0-2.83.3.3,0,0,1,.25-.25,5.49,5.49,0,0,1,2.55,0,.3.3,0,0,1,.25.25,6.75,6.75,0,0,1,0,2.83.32.32,0,0,1-.25.26,5.78,5.78,0,0,1-2.55,0A.32.32,0,0,1,18.63,13.37Z" transform="translate(0.06 -5)"/><path class="cls-6" d="M18.77,13.25a6.28,6.28,0,0,1,0-2.59.28.28,0,0,1,.22-.22,5.09,5.09,0,0,1,2.33,0,.28.28,0,0,1,.23.22,6.28,6.28,0,0,1,0,2.59.29.29,0,0,1-.23.23,5.09,5.09,0,0,1-2.33,0A.29.29,0,0,1,18.77,13.25Z" transform="translate(0.06 -5)"/><path class="cls-7" d="M19.14,13.48a.29.29,0,0,1-.23-.23,6.28,6.28,0,0,1,0-2.59.28.28,0,0,1,.23-.22,6.37,6.37,0,0,1,1.09-.14,6.4,6.4,0,0,0-1.24.14.28.28,0,0,0-.22.22,6.28,6.28,0,0,0,0,2.59.29.29,0,0,0,.22.23,6.28,6.28,0,0,0,1.24.13A7.37,7.37,0,0,1,19.14,13.48Z" transform="translate(0.06 -5)"/><path class="cls-5" d="M21.18,13.48a.29.29,0,0,0,.22-.23,6.28,6.28,0,0,0,0-2.59.28.28,0,0,0-.22-.22,6.59,6.59,0,0,0-1.1-.14,6.25,6.25,0,0,1,1.24.14.28.28,0,0,1,.23.22,6.28,6.28,0,0,1,0,2.59.29.29,0,0,1-.23.23,6.12,6.12,0,0,1-1.23.13A7.68,7.68,0,0,0,21.18,13.48Z" transform="translate(0.06 -5)"/><path class="cls-8" d="M22.49,14l.36.2A9.28,9.28,0,0,0,23,12a8.74,8.74,0,0,0-.2-2.26l-.35.19a.25.25,0,0,0-.13.22V13.8A.25.25,0,0,0,22.49,14Z" transform="translate(0.06 -5)"/><path class="cls-6" d="M23.46,12a8.87,8.87,0,0,1-.2,2.11.18.18,0,0,1-.14.13l-.24,0a.06.06,0,0,1-.06-.07A8.75,8.75,0,0,0,23,12a8.71,8.71,0,0,0-.21-2.19.06.06,0,0,1,.06-.08l.24,0a.18.18,0,0,1,.14.13A8.83,8.83,0,0,1,23.46,12Z" transform="translate(0.06 -5)"/><path class="cls-7" d="M23.23,9.88c-.07.13-.22.08-.32,0a5.82,5.82,0,0,1,.18,1.64,8.51,8.51,0,0,1-.21,2.57s.2-.24.32-.05a1.41,1.41,0,0,0,.07-.27s-.18.23-.23,0,.07-.37.1-.67a13,13,0,0,0,0-2.42c-.08-.62-.07-.64,0-.65s.11-.11.19.07Z" transform="translate(0.06 -5)"/></g><g id="Chair_S-3" data-name="Chair S"><polygon class="cls-1" points="4.04 1.97 4.5 2.14 4.5 1.86 4.09 1.58 4.04 1.97"/><polygon class="cls-2" points="4.04 1.97 4.5 2.14 4.48 2.27 4.02 2.23 4.04 1.97"/><path class="cls-2" d="M4,6.31a.28.28,0,0,0-.16,0h0a.29.29,0,0,0-.27.29V8.7A.29.29,0,0,0,3.8,9h0A.22.22,0,0,0,4,8.94a.28.28,0,0,0,.13-.24V6.55A.28.28,0,0,0,4,6.31Z" transform="translate(0.06 -5)"/><path class="cls-3" d="M4.05,6.46V8.61a.29.29,0,0,1-.29.29h0a.29.29,0,0,1-.29-.29V6.46a.29.29,0,0,1,.29-.3h0A.29.29,0,0,1,4.05,6.46Z" transform="translate(0.06 -5)"/><path class="cls-1" d="M4,6.46V8.61a.3.3,0,0,1-.27.29h0a.29.29,0,0,0,.29-.29V6.46a.29.29,0,0,0-.29-.3h0A.3.3,0,0,1,4,6.46Z" transform="translate(0.06 -5)"/><path class="cls-1" d="M3.53,6.46V8.61a.31.31,0,0,0,.07.18.18.18,0,0,0,.28,0,.3.3,0,0,0,.06-.18V6.46a.31.31,0,0,0-.06-.19.18.18,0,0,0-.28,0A.32.32,0,0,0,3.53,6.46Z" transform="translate(0.06 -5)"/><polygon class="cls-1" points="8.05 1.97 7.6 2.14 7.59 1.86 8.01 1.58 8.05 1.97"/><polygon class="cls-2" points="8.05 1.97 7.6 2.14 7.62 2.27 8.07 2.23 8.05 1.97"/><path class="cls-2" d="M8,6.31a.3.3,0,0,1,.16,0h0a.3.3,0,0,1,.28.29V8.7A.3.3,0,0,1,8.16,9h0A.24.24,0,0,1,8,8.94a.28.28,0,0,1-.13-.24V6.55A.28.28,0,0,1,8,6.31Z" transform="translate(0.06 -5)"/><path class="cls-3" d="M7.91,6.46V8.61a.29.29,0,0,0,.29.29h0a.3.3,0,0,0,.3-.29V6.46a.3.3,0,0,0-.3-.3h0A.29.29,0,0,0,7.91,6.46Z" transform="translate(0.06 -5)"/><path class="cls-1" d="M8,6.46V8.61a.3.3,0,0,0,.27.29h0a.29.29,0,0,1-.29-.29V6.46a.29.29,0,0,1,.29-.3h0A.3.3,0,0,0,8,6.46Z" transform="translate(0.06 -5)"/><path class="cls-1" d="M8.43,6.46V8.61a.3.3,0,0,1-.06.18.18.18,0,0,1-.28,0A.31.31,0,0,1,8,8.61V6.46a.32.32,0,0,1,.07-.19.18.18,0,0,1,.28,0A.31.31,0,0,1,8.43,6.46Z" transform="translate(0.06 -5)"/><polygon class="cls-4" points="6.88 1.01 6.7 1.8 5.24 1.8 5.06 1.01 6.88 1.01"/><polygon class="cls-5" points="6.62 1.01 6.49 1.8 5.45 1.8 5.32 1.01 6.62 1.01"/><path class="cls-4" d="M4.56,9.83a7.15,7.15,0,0,0,2.84,0,.3.3,0,0,0,.25-.25A5.78,5.78,0,0,0,7.65,7a.3.3,0,0,0-.25-.25,6.8,6.8,0,0,0-2.84,0A.3.3,0,0,0,4.31,7a5.78,5.78,0,0,0,0,2.55A.3.3,0,0,0,4.56,9.83Z" transform="translate(0.06 -5)"/><path class="cls-6" d="M4.69,9.69a6.23,6.23,0,0,0,2.58,0,.28.28,0,0,0,.23-.22,5.09,5.09,0,0,0,0-2.33.29.29,0,0,0-.23-.23,6.59,6.59,0,0,0-2.58,0,.29.29,0,0,0-.23.23,5.09,5.09,0,0,0,0,2.33A.28.28,0,0,0,4.69,9.69Z" transform="translate(0.06 -5)"/><path class="cls-7" d="M4.46,9.32a.28.28,0,0,0,.23.23,6.23,6.23,0,0,0,2.58,0,.28.28,0,0,0,.23-.23,6.23,6.23,0,0,0,.13-1.09A5.6,5.6,0,0,1,7.5,9.47a.28.28,0,0,1-.23.22,6.23,6.23,0,0,1-2.58,0,.28.28,0,0,1-.23-.22,5.6,5.6,0,0,1-.13-1.24A6.23,6.23,0,0,0,4.46,9.32Z" transform="translate(0.06 -5)"/><path class="cls-5" d="M4.46,7.29a.28.28,0,0,1,.23-.23,6.23,6.23,0,0,1,2.58,0,.28.28,0,0,1,.23.23,6.23,6.23,0,0,1,.13,1.09A5.49,5.49,0,0,0,7.5,7.14a.29.29,0,0,0-.23-.23,6.59,6.59,0,0,0-2.58,0,.29.29,0,0,0-.23.23,5.49,5.49,0,0,0-.13,1.24A6.23,6.23,0,0,1,4.46,7.29Z" transform="translate(0.06 -5)"/><path class="cls-8" d="M3.91,6l-.19-.35A9.28,9.28,0,0,1,6,5.43a9.18,9.18,0,0,1,2.26.19L8.05,6a.26.26,0,0,1-.22.13H4.14A.26.26,0,0,1,3.91,6Z" transform="translate(0.06 -5)"/><path class="cls-6" d="M6,5a9,9,0,0,0-2.11.2.19.19,0,0,0-.12.14l0,.24a.06.06,0,0,0,.08.06A8.71,8.71,0,0,1,6,5.43a8.63,8.63,0,0,1,2.19.21.06.06,0,0,0,.08-.06l0-.24a.16.16,0,0,0-.12-.14A9,9,0,0,0,6,5Z" transform="translate(0.06 -5)"/><path class="cls-7" d="M8.06,5.23c-.13.08-.08.22,0,.32a5.78,5.78,0,0,0-1.63-.18,8.47,8.47,0,0,0-2.57.21s.24-.2,0-.32a1.19,1.19,0,0,1,.27-.07s-.23.18,0,.23.38-.07.68-.1a12.88,12.88,0,0,1,2.41,0c.62.08.65.07.66,0s.1-.11-.07-.19Z" transform="translate(0.06 -5)"/></g><g id="Chair_S-4" data-name="Chair S"><polygon class="cls-1" points="4.04 12.06 4.5 11.89 4.5 12.17 4.09 12.45 4.04 12.06"/><polygon class="cls-2" points="4.04 12.06 4.5 11.89 4.48 11.76 4.02 11.8 4.04 12.06"/><path class="cls-2" d="M4,17.72a.28.28,0,0,1-.16.05h0a.29.29,0,0,1-.27-.29V15.33A.29.29,0,0,1,3.8,15h0a.22.22,0,0,1,.16.05.28.28,0,0,1,.13.24v2.15A.28.28,0,0,1,4,17.72Z" transform="translate(0.06 -5)"/><path class="cls-3" d="M4.05,17.57V15.42a.29.29,0,0,0-.29-.29h0a.29.29,0,0,0-.29.29v2.15a.29.29,0,0,0,.29.3h0A.29.29,0,0,0,4.05,17.57Z" transform="translate(0.06 -5)"/><path class="cls-1" d="M4,17.57V15.42a.29.29,0,0,0-.27-.29h0a.29.29,0,0,1,.29.29v2.15a.29.29,0,0,1-.29.3h0A.29.29,0,0,0,4,17.57Z" transform="translate(0.06 -5)"/><path class="cls-1" d="M3.53,17.57V15.42a.29.29,0,0,1,.07-.18.18.18,0,0,1,.28,0,.28.28,0,0,1,.06.18v2.15a.26.26,0,0,1-.06.18.17.17,0,0,1-.28,0A.27.27,0,0,1,3.53,17.57Z" transform="translate(0.06 -5)"/><polygon class="cls-1" points="8.05 12.06 7.6 11.89 7.59 12.17 8.01 12.45 8.05 12.06"/><polygon class="cls-2" points="8.05 12.06 7.6 11.89 7.62 11.76 8.07 11.8 8.05 12.06"/><path class="cls-2" d="M8,17.72a.3.3,0,0,0,.16.05h0a.3.3,0,0,0,.28-.29V15.33A.3.3,0,0,0,8.16,15h0a.24.24,0,0,0-.16.05.28.28,0,0,0-.13.24v2.15A.28.28,0,0,0,8,17.72Z" transform="translate(0.06 -5)"/><path class="cls-3" d="M7.91,17.57V15.42a.29.29,0,0,1,.29-.29h0a.3.3,0,0,1,.3.29v2.15a.3.3,0,0,1-.3.3h0A.29.29,0,0,1,7.91,17.57Z" transform="translate(0.06 -5)"/><path class="cls-1" d="M8,17.57V15.42a.29.29,0,0,1,.27-.29h0a.29.29,0,0,0-.29.29v2.15a.29.29,0,0,0,.29.3h0A.29.29,0,0,1,8,17.57Z" transform="translate(0.06 -5)"/><path class="cls-1" d="M8.43,17.57V15.42a.28.28,0,0,0-.06-.18.18.18,0,0,0-.28,0,.29.29,0,0,0-.07.18v2.15a.27.27,0,0,0,.07.18.17.17,0,0,0,.28,0A.26.26,0,0,0,8.43,17.57Z" transform="translate(0.06 -5)"/><polygon class="cls-4" points="6.88 13.02 6.7 12.23 5.24 12.23 5.06 13.02 6.88 13.02"/><polygon class="cls-5" points="6.62 13.02 6.49 12.23 5.45 12.23 5.32 13.02 6.62 13.02"/><path class="cls-4" d="M4.56,14.2a6.8,6.8,0,0,1,2.84,0,.3.3,0,0,1,.25.25,5.78,5.78,0,0,1,0,2.55.3.3,0,0,1-.25.25,6.8,6.8,0,0,1-2.84,0A.3.3,0,0,1,4.31,17a5.78,5.78,0,0,1,0-2.55A.3.3,0,0,1,4.56,14.2Z" transform="translate(0.06 -5)"/><path class="cls-6" d="M4.69,14.33a6.59,6.59,0,0,1,2.58,0,.3.3,0,0,1,.23.23,5.09,5.09,0,0,1,0,2.33.28.28,0,0,1-.23.22,6.23,6.23,0,0,1-2.58,0,.28.28,0,0,1-.23-.22,5.09,5.09,0,0,1,0-2.33A.3.3,0,0,1,4.69,14.33Z" transform="translate(0.06 -5)"/><path class="cls-7" d="M4.46,14.71a.28.28,0,0,1,.23-.23,6.23,6.23,0,0,1,2.58,0,.28.28,0,0,1,.23.23,6.23,6.23,0,0,1,.13,1.09,5.49,5.49,0,0,0-.13-1.24.3.3,0,0,0-.23-.23,6.59,6.59,0,0,0-2.58,0,.3.3,0,0,0-.23.23,5.49,5.49,0,0,0-.13,1.24A6.23,6.23,0,0,1,4.46,14.71Z" transform="translate(0.06 -5)"/><path class="cls-5" d="M4.46,16.74a.28.28,0,0,0,.23.23,6.23,6.23,0,0,0,2.58,0,.28.28,0,0,0,.23-.23,6.23,6.23,0,0,0,.13-1.09,5.55,5.55,0,0,1-.13,1.24.28.28,0,0,1-.23.22,6.23,6.23,0,0,1-2.58,0,.28.28,0,0,1-.23-.22,5.49,5.49,0,0,1-.13-1.24A6.23,6.23,0,0,0,4.46,16.74Z" transform="translate(0.06 -5)"/><path class="cls-8" d="M3.91,18.06l-.19.35A9.28,9.28,0,0,0,6,18.6a9.18,9.18,0,0,0,2.26-.19l-.19-.35a.26.26,0,0,0-.22-.13H4.14A.26.26,0,0,0,3.91,18.06Z" transform="translate(0.06 -5)"/><path class="cls-6" d="M6,19a9,9,0,0,1-2.11-.2.19.19,0,0,1-.12-.15l0-.24a.05.05,0,0,1,.08-.05A8.71,8.71,0,0,0,6,18.6a8.63,8.63,0,0,0,2.19-.21.05.05,0,0,1,.08.05l0,.24a.16.16,0,0,1-.12.15A9,9,0,0,1,6,19Z" transform="translate(0.06 -5)"/><path class="cls-7" d="M8.06,18.8c-.13-.08-.08-.22,0-.32a5.78,5.78,0,0,1-1.63.18,8.81,8.81,0,0,1-2.57-.21s.24.2,0,.32a1.19,1.19,0,0,0,.27.07s-.23-.18,0-.23.38.07.68.1a12.88,12.88,0,0,0,2.41,0c.62-.09.65-.08.66,0s.1.12-.07.2Z" transform="translate(0.06 -5)"/></g><g id="Chair_S-5" data-name="Chair S"><polygon class="cls-1" points="9.76 1.97 10.21 2.14 10.22 1.86 9.8 1.58 9.76 1.97"/><polygon class="cls-2" points="9.76 1.97 10.21 2.14 10.19 2.27 9.74 2.23 9.76 1.97"/><path class="cls-2" d="M9.7,6.31a.3.3,0,0,0-.16,0h0a.29.29,0,0,0-.28.29V8.7A.29.29,0,0,0,9.52,9h0a.24.24,0,0,0,.16-.05.28.28,0,0,0,.13-.24V6.55A.28.28,0,0,0,9.7,6.31Z" transform="translate(0.06 -5)"/><path class="cls-3" d="M9.77,6.46V8.61a.29.29,0,0,1-.29.29h0a.29.29,0,0,1-.3-.29V6.46a.29.29,0,0,1,.3-.3h0A.29.29,0,0,1,9.77,6.46Z" transform="translate(0.06 -5)"/><path class="cls-1" d="M9.72,6.46V8.61a.3.3,0,0,1-.27.29h0a.29.29,0,0,0,.29-.29V6.46a.29.29,0,0,0-.29-.3h0A.3.3,0,0,1,9.72,6.46Z" transform="translate(0.06 -5)"/><path class="cls-1" d="M9.25,6.46V8.61a.3.3,0,0,0,.06.18.18.18,0,0,0,.28,0,.31.31,0,0,0,.07-.18V6.46a.32.32,0,0,0-.07-.19.18.18,0,0,0-.28,0A.31.31,0,0,0,9.25,6.46Z" transform="translate(0.06 -5)"/><polygon class="cls-1" points="13.76 1.97 13.31 2.14 13.3 1.86 13.72 1.58 13.76 1.97"/><polygon class="cls-2" points="13.76 1.97 13.31 2.14 13.33 2.27 13.79 2.23 13.76 1.97"/><path class="cls-2" d="M13.69,6.31a.34.34,0,0,1,.17,0h0a.29.29,0,0,1,.27.29V8.7a.29.29,0,0,1-.27.29h0a.26.26,0,0,1-.17-.05.3.3,0,0,1-.12-.24V6.55A.3.3,0,0,1,13.69,6.31Z" transform="translate(0.06 -5)"/><path class="cls-3" d="M13.62,6.46V8.61a.3.3,0,0,0,.3.29h0a.29.29,0,0,0,.29-.29V6.46a.29.29,0,0,0-.29-.3h0A.3.3,0,0,0,13.62,6.46Z" transform="translate(0.06 -5)"/><path class="cls-1" d="M13.67,6.46V8.61a.3.3,0,0,0,.27.29h0a.3.3,0,0,1-.3-.29V6.46a.3.3,0,0,1,.3-.3h0A.3.3,0,0,0,13.67,6.46Z" transform="translate(0.06 -5)"/><path class="cls-1" d="M14.14,6.46V8.61a.3.3,0,0,1-.06.18.18.18,0,0,1-.28,0,.3.3,0,0,1-.06-.18V6.46a.31.31,0,0,1,.06-.19.18.18,0,0,1,.28,0A.31.31,0,0,1,14.14,6.46Z" transform="translate(0.06 -5)"/><polygon class="cls-4" points="12.6 1.01 12.41 1.8 10.96 1.8 10.77 1.01 12.6 1.01"/><polygon class="cls-5" points="12.34 1.01 12.21 1.8 11.17 1.8 11.04 1.01 12.34 1.01"/><path class="cls-4" d="M10.28,9.83a7.1,7.1,0,0,0,2.83,0,.3.3,0,0,0,.25-.25,5.49,5.49,0,0,0,0-2.55.3.3,0,0,0-.25-.25,6.75,6.75,0,0,0-2.83,0A.3.3,0,0,0,10,7a5.49,5.49,0,0,0,0,2.55A.3.3,0,0,0,10.28,9.83Z" transform="translate(0.06 -5)"/><path class="cls-6" d="M10.4,9.69a6.28,6.28,0,0,0,2.59,0,.3.3,0,0,0,.23-.22,5.39,5.39,0,0,0,0-2.33A.32.32,0,0,0,13,6.91a6.64,6.64,0,0,0-2.59,0,.3.3,0,0,0-.23.23,5.24,5.24,0,0,0,0,2.33A.29.29,0,0,0,10.4,9.69Z" transform="translate(0.06 -5)"/><path class="cls-7" d="M10.17,9.32a.29.29,0,0,0,.23.23,6.28,6.28,0,0,0,2.59,0,.3.3,0,0,0,.23-.23,7.37,7.37,0,0,0,.13-1.09,7.15,7.15,0,0,1-.13,1.24.3.3,0,0,1-.23.22,6.28,6.28,0,0,1-2.59,0,.29.29,0,0,1-.23-.22A6.28,6.28,0,0,1,10,8.23,7.37,7.37,0,0,0,10.17,9.32Z" transform="translate(0.06 -5)"/><path class="cls-5" d="M10.17,7.29a.29.29,0,0,1,.23-.23,6.28,6.28,0,0,1,2.59,0,.3.3,0,0,1,.23.23,7.37,7.37,0,0,1,.13,1.09,7,7,0,0,0-.13-1.24A.32.32,0,0,0,13,6.91a6.64,6.64,0,0,0-2.59,0,.3.3,0,0,0-.23.23A6.14,6.14,0,0,0,10,8.38,7.37,7.37,0,0,1,10.17,7.29Z" transform="translate(0.06 -5)"/><path class="cls-8" d="M9.63,6l-.2-.35a9.33,9.33,0,0,1,2.27-.19A9.13,9.13,0,0,1,14,5.62L13.76,6a.25.25,0,0,1-.22.13H9.85A.25.25,0,0,1,9.63,6Z" transform="translate(0.06 -5)"/><path class="cls-6" d="M11.7,5a9,9,0,0,0-2.11.2.18.18,0,0,0-.13.14l0,.24s0,.07.07.06a8.75,8.75,0,0,1,2.2-.21,8.71,8.71,0,0,1,2.19.21A.06.06,0,0,0,14,5.58l0-.24a.19.19,0,0,0-.12-.14A9,9,0,0,0,11.7,5Z" transform="translate(0.06 -5)"/><path class="cls-7" d="M13.77,5.23c-.12.08-.08.22,0,.32a5.82,5.82,0,0,0-1.64-.18,8.44,8.44,0,0,0-2.56.21s.23-.2,0-.32a1.2,1.2,0,0,1,.26-.07s-.23.18,0,.23.37-.07.67-.1a13,13,0,0,1,2.42,0c.62.08.64.07.65,0s.11-.11-.07-.19Z" transform="translate(0.06 -5)"/></g><g id="Chair_S-6" data-name="Chair S"><polygon class="cls-1" points="9.76 12.06 10.21 11.89 10.22 12.17 9.8 12.45 9.76 12.06"/><polygon class="cls-2" points="9.76 12.06 10.21 11.89 10.19 11.76 9.74 11.8 9.76 12.06"/><path class="cls-2" d="M9.7,17.72a.3.3,0,0,1-.16.05h0a.29.29,0,0,1-.28-.29V15.33A.29.29,0,0,1,9.52,15h0a.24.24,0,0,1,.16.05.28.28,0,0,1,.13.24v2.15A.28.28,0,0,1,9.7,17.72Z" transform="translate(0.06 -5)"/><path class="cls-3" d="M9.77,17.57V15.42a.29.29,0,0,0-.29-.29h0a.29.29,0,0,0-.3.29v2.15a.29.29,0,0,0,.3.3h0A.29.29,0,0,0,9.77,17.57Z" transform="translate(0.06 -5)"/><path class="cls-1" d="M9.72,17.57V15.42a.29.29,0,0,0-.27-.29h0a.29.29,0,0,1,.29.29v2.15a.29.29,0,0,1-.29.3h0A.29.29,0,0,0,9.72,17.57Z" transform="translate(0.06 -5)"/><path class="cls-1" d="M9.25,17.57V15.42a.28.28,0,0,1,.06-.18.18.18,0,0,1,.28,0,.29.29,0,0,1,.07.18v2.15a.27.27,0,0,1-.07.18.17.17,0,0,1-.28,0A.26.26,0,0,1,9.25,17.57Z" transform="translate(0.06 -5)"/><polygon class="cls-1" points="13.76 12.06 13.31 11.89 13.3 12.17 13.72 12.45 13.76 12.06"/><polygon class="cls-2" points="13.76 12.06 13.31 11.89 13.33 11.76 13.79 11.8 13.76 12.06"/><path class="cls-2" d="M13.69,17.72a.34.34,0,0,0,.17.05h0a.29.29,0,0,0,.27-.29V15.33a.29.29,0,0,0-.27-.29h0a.26.26,0,0,0-.17.05.3.3,0,0,0-.12.24v2.15A.3.3,0,0,0,13.69,17.72Z" transform="translate(0.06 -5)"/><path class="cls-3" d="M13.62,17.57V15.42a.3.3,0,0,1,.3-.29h0a.29.29,0,0,1,.29.29v2.15a.29.29,0,0,1-.29.3h0A.3.3,0,0,1,13.62,17.57Z" transform="translate(0.06 -5)"/><path class="cls-1" d="M13.67,17.57V15.42a.29.29,0,0,1,.27-.29h0a.3.3,0,0,0-.3.29v2.15a.3.3,0,0,0,.3.3h0A.29.29,0,0,1,13.67,17.57Z" transform="translate(0.06 -5)"/><path class="cls-1" d="M14.14,17.57V15.42a.28.28,0,0,0-.06-.18.18.18,0,0,0-.28,0,.28.28,0,0,0-.06.18v2.15a.26.26,0,0,0,.06.18.17.17,0,0,0,.28,0A.26.26,0,0,0,14.14,17.57Z" transform="translate(0.06 -5)"/><polygon class="cls-4" points="12.6 13.02 12.41 12.23 10.96 12.23 10.77 13.02 12.6 13.02"/><polygon class="cls-5" points="12.34 13.02 12.21 12.23 11.17 12.23 11.04 13.02 12.34 13.02"/><path class="cls-4" d="M10.28,14.2a6.75,6.75,0,0,1,2.83,0,.3.3,0,0,1,.25.25,5.49,5.49,0,0,1,0,2.55.3.3,0,0,1-.25.25,6.75,6.75,0,0,1-2.83,0A.3.3,0,0,1,10,17a5.49,5.49,0,0,1,0-2.55A.3.3,0,0,1,10.28,14.2Z" transform="translate(0.06 -5)"/><path class="cls-6" d="M10.4,14.33a6.64,6.64,0,0,1,2.59,0,.33.33,0,0,1,.23.23,5.39,5.39,0,0,1,0,2.33.3.3,0,0,1-.23.22,6.28,6.28,0,0,1-2.59,0,.29.29,0,0,1-.23-.22,5.24,5.24,0,0,1,0-2.33A.32.32,0,0,1,10.4,14.33Z" transform="translate(0.06 -5)"/><path class="cls-7" d="M10.17,14.71a.29.29,0,0,1,.23-.23,6.28,6.28,0,0,1,2.59,0,.3.3,0,0,1,.23.23,7.37,7.37,0,0,1,.13,1.09,7,7,0,0,0-.13-1.24.33.33,0,0,0-.23-.23,6.64,6.64,0,0,0-2.59,0,.32.32,0,0,0-.23.23A6.14,6.14,0,0,0,10,15.8,7.37,7.37,0,0,1,10.17,14.71Z" transform="translate(0.06 -5)"/><path class="cls-5" d="M10.17,16.74a.29.29,0,0,0,.23.23A6.28,6.28,0,0,0,13,17a.3.3,0,0,0,.23-.23,7.37,7.37,0,0,0,.13-1.09,7.06,7.06,0,0,1-.13,1.24.3.3,0,0,1-.23.22,6.28,6.28,0,0,1-2.59,0,.29.29,0,0,1-.23-.22A6.14,6.14,0,0,1,10,15.65,7.37,7.37,0,0,0,10.17,16.74Z" transform="translate(0.06 -5)"/><path class="cls-8" d="M9.63,18.06l-.2.35a9.33,9.33,0,0,0,2.27.19A9.13,9.13,0,0,0,14,18.41l-.19-.35a.25.25,0,0,0-.22-.13H9.85A.25.25,0,0,0,9.63,18.06Z" transform="translate(0.06 -5)"/><path class="cls-6" d="M11.7,19a9,9,0,0,1-2.11-.2.18.18,0,0,1-.13-.15l0-.24s0-.07.07-.05a8.75,8.75,0,0,0,2.2.21,8.71,8.71,0,0,0,2.19-.21.05.05,0,0,1,.08.05l0,.24a.19.19,0,0,1-.12.15A9,9,0,0,1,11.7,19Z" transform="translate(0.06 -5)"/><path class="cls-7" d="M13.77,18.8c-.12-.08-.08-.22,0-.32a5.82,5.82,0,0,1-1.64.18,8.77,8.77,0,0,1-2.56-.21s.23.2,0,.32a1.2,1.2,0,0,0,.26.07s-.23-.18,0-.23.37.07.67.1a13,13,0,0,0,2.42,0c.62-.09.64-.08.65,0s.11.12-.07.2Z" transform="translate(0.06 -5)"/></g><g id="Chair_S-7" data-name="Chair S"><polygon class="cls-1" points="15.47 1.97 15.92 2.14 15.93 1.86 15.52 1.58 15.47 1.97"/><polygon class="cls-2" points="15.47 1.97 15.92 2.14 15.91 2.27 15.45 2.23 15.47 1.97"/><path class="cls-2" d="M15.41,6.31a.28.28,0,0,0-.16,0h0a.29.29,0,0,0-.27.29V8.7a.29.29,0,0,0,.27.29h0a.22.22,0,0,0,.16-.05.28.28,0,0,0,.13-.24V6.55A.28.28,0,0,0,15.41,6.31Z" transform="translate(0.06 -5)"/><path class="cls-3" d="M15.48,6.46V8.61a.29.29,0,0,1-.29.29h0a.29.29,0,0,1-.29-.29V6.46a.29.29,0,0,1,.29-.3h0A.29.29,0,0,1,15.48,6.46Z" transform="translate(0.06 -5)"/><path class="cls-1" d="M15.44,6.46V8.61a.3.3,0,0,1-.27.29h0a.29.29,0,0,0,.29-.29V6.46a.29.29,0,0,0-.29-.3h0A.3.3,0,0,1,15.44,6.46Z" transform="translate(0.06 -5)"/><path class="cls-1" d="M15,6.46V8.61a.31.31,0,0,0,.07.18.18.18,0,0,0,.28,0,.3.3,0,0,0,.06-.18V6.46a.31.31,0,0,0-.06-.19.18.18,0,0,0-.28,0A.32.32,0,0,0,15,6.46Z" transform="translate(0.06 -5)"/><polygon class="cls-1" points="19.48 1.97 19.03 2.14 19.02 1.86 19.43 1.58 19.48 1.97"/><polygon class="cls-2" points="19.48 1.97 19.03 2.14 19.04 2.27 19.5 2.23 19.48 1.97"/><path class="cls-2" d="M19.41,6.31a.3.3,0,0,1,.16,0h0a.29.29,0,0,1,.27.29V8.7a.29.29,0,0,1-.27.29h0a.24.24,0,0,1-.16-.05.28.28,0,0,1-.13-.24V6.55A.28.28,0,0,1,19.41,6.31Z" transform="translate(0.06 -5)"/><path class="cls-3" d="M19.34,6.46V8.61a.29.29,0,0,0,.29.29h0a.29.29,0,0,0,.29-.29V6.46a.29.29,0,0,0-.29-.3h0A.29.29,0,0,0,19.34,6.46Z" transform="translate(0.06 -5)"/><path class="cls-1" d="M19.39,6.46V8.61a.29.29,0,0,0,.27.29h0a.29.29,0,0,1-.29-.29V6.46a.29.29,0,0,1,.29-.3h0A.3.3,0,0,0,19.39,6.46Z" transform="translate(0.06 -5)"/><path class="cls-1" d="M19.86,6.46V8.61a.3.3,0,0,1-.06.18.19.19,0,0,1-.29,0,.3.3,0,0,1-.06-.18V6.46a.31.31,0,0,1,.06-.19.19.19,0,0,1,.29,0A.31.31,0,0,1,19.86,6.46Z" transform="translate(0.06 -5)"/><polygon class="cls-4" points="18.31 1.01 18.13 1.8 16.67 1.8 16.49 1.01 18.31 1.01"/><polygon class="cls-5" points="18.05 1.01 17.92 1.8 16.88 1.8 16.75 1.01 18.05 1.01"/><path class="cls-4" d="M16,9.83a7.15,7.15,0,0,0,2.84,0,.32.32,0,0,0,.25-.25,5.78,5.78,0,0,0,0-2.55.32.32,0,0,0-.25-.25,6.8,6.8,0,0,0-2.84,0,.3.3,0,0,0-.25.25,5.49,5.49,0,0,0,0,2.55A.3.3,0,0,0,16,9.83Z" transform="translate(0.06 -5)"/><path class="cls-6" d="M16.12,9.69a6.23,6.23,0,0,0,2.58,0,.28.28,0,0,0,.23-.22,5.09,5.09,0,0,0,0-2.33.29.29,0,0,0-.23-.23,6.59,6.59,0,0,0-2.58,0,.29.29,0,0,0-.23.23,5.09,5.09,0,0,0,0,2.33A.28.28,0,0,0,16.12,9.69Z" transform="translate(0.06 -5)"/><path class="cls-7" d="M15.89,9.32a.28.28,0,0,0,.23.23,6.23,6.23,0,0,0,2.58,0,.28.28,0,0,0,.23-.23,6.23,6.23,0,0,0,.13-1.09,5.6,5.6,0,0,1-.13,1.24.28.28,0,0,1-.23.22,6.23,6.23,0,0,1-2.58,0,.28.28,0,0,1-.23-.22,5.6,5.6,0,0,1-.13-1.24A5.39,5.39,0,0,0,15.89,9.32Z" transform="translate(0.06 -5)"/><path class="cls-5" d="M15.89,7.29a.28.28,0,0,1,.23-.23,6.23,6.23,0,0,1,2.58,0,.28.28,0,0,1,.23.23,6.23,6.23,0,0,1,.13,1.09,5.49,5.49,0,0,0-.13-1.24.29.29,0,0,0-.23-.23,6.59,6.59,0,0,0-2.58,0,.29.29,0,0,0-.23.23,5.49,5.49,0,0,0-.13,1.24A5.39,5.39,0,0,1,15.89,7.29Z" transform="translate(0.06 -5)"/><path class="cls-8" d="M15.34,6l-.19-.35a9.28,9.28,0,0,1,2.26-.19,9.28,9.28,0,0,1,2.26.19L19.48,6a.26.26,0,0,1-.23.13H15.56A.26.26,0,0,1,15.34,6Z" transform="translate(0.06 -5)"/><path class="cls-6" d="M17.41,5a9,9,0,0,0-2.11.2.19.19,0,0,0-.12.14l0,.24a.06.06,0,0,0,.08.06,8.71,8.71,0,0,1,2.19-.21,8.63,8.63,0,0,1,2.19.21.06.06,0,0,0,.08-.06l0-.24a.16.16,0,0,0-.12-.14A9,9,0,0,0,17.41,5Z" transform="translate(0.06 -5)"/><path class="cls-7" d="M19.49,5.23c-.13.08-.09.22,0,.32a5.78,5.78,0,0,0-1.63-.18,8.47,8.47,0,0,0-2.57.21s.23-.2.05-.32a1.19,1.19,0,0,1,.27-.07s-.23.18,0,.23.38-.07.68-.1a12.89,12.89,0,0,1,2.41,0c.62.08.64.07.66,0s.1-.11-.07-.19Z" transform="translate(0.06 -5)"/></g><g id="Chair_S-8" data-name="Chair S"><polygon class="cls-1" points="15.47 12.06 15.92 11.89 15.93 12.17 15.52 12.45 15.47 12.06"/><polygon class="cls-2" points="15.47 12.06 15.92 11.89 15.91 11.76 15.45 11.8 15.47 12.06"/><path class="cls-2" d="M15.41,17.72a.28.28,0,0,1-.16.05h0a.29.29,0,0,1-.27-.29V15.33a.29.29,0,0,1,.27-.29h0a.22.22,0,0,1,.16.05.28.28,0,0,1,.13.24v2.15A.28.28,0,0,1,15.41,17.72Z" transform="translate(0.06 -5)"/><path class="cls-3" d="M15.48,17.57V15.42a.29.29,0,0,0-.29-.29h0a.29.29,0,0,0-.29.29v2.15a.29.29,0,0,0,.29.3h0A.29.29,0,0,0,15.48,17.57Z" transform="translate(0.06 -5)"/><path class="cls-1" d="M15.44,17.57V15.42a.29.29,0,0,0-.27-.29h0a.29.29,0,0,1,.29.29v2.15a.29.29,0,0,1-.29.3h0A.29.29,0,0,0,15.44,17.57Z" transform="translate(0.06 -5)"/><path class="cls-1" d="M15,17.57V15.42a.29.29,0,0,1,.07-.18.18.18,0,0,1,.28,0,.28.28,0,0,1,.06.18v2.15a.26.26,0,0,1-.06.18.17.17,0,0,1-.28,0A.27.27,0,0,1,15,17.57Z" transform="translate(0.06 -5)"/><polygon class="cls-1" points="19.48 12.06 19.03 11.89 19.02 12.17 19.43 12.45 19.48 12.06"/><polygon class="cls-2" points="19.48 12.06 19.03 11.89 19.04 11.76 19.5 11.8 19.48 12.06"/><path class="cls-2" d="M19.41,17.72a.3.3,0,0,0,.16.05h0a.29.29,0,0,0,.27-.29V15.33a.29.29,0,0,0-.27-.29h0a.24.24,0,0,0-.16.05.28.28,0,0,0-.13.24v2.15A.28.28,0,0,0,19.41,17.72Z" transform="translate(0.06 -5)"/><path class="cls-3" d="M19.34,17.57V15.42a.29.29,0,0,1,.29-.29h0a.29.29,0,0,1,.29.29v2.15a.29.29,0,0,1-.29.3h0A.29.29,0,0,1,19.34,17.57Z" transform="translate(0.06 -5)"/><path class="cls-1" d="M19.39,17.57V15.42a.29.29,0,0,1,.27-.29h0a.29.29,0,0,0-.29.29v2.15a.29.29,0,0,0,.29.3h0A.28.28,0,0,1,19.39,17.57Z" transform="translate(0.06 -5)"/><path class="cls-1" d="M19.86,17.57V15.42a.28.28,0,0,0-.06-.18.19.19,0,0,0-.29,0,.28.28,0,0,0-.06.18v2.15a.26.26,0,0,0,.06.18.18.18,0,0,0,.29,0A.26.26,0,0,0,19.86,17.57Z" transform="translate(0.06 -5)"/><polygon class="cls-4" points="18.31 13.02 18.13 12.23 16.67 12.23 16.49 13.02 18.31 13.02"/><polygon class="cls-5" points="18.05 13.02 17.92 12.23 16.88 12.23 16.75 13.02 18.05 13.02"/><path class="cls-4" d="M16,14.2a6.8,6.8,0,0,1,2.84,0,.32.32,0,0,1,.25.25,5.78,5.78,0,0,1,0,2.55.32.32,0,0,1-.25.25,6.8,6.8,0,0,1-2.84,0,.3.3,0,0,1-.25-.25,5.49,5.49,0,0,1,0-2.55A.3.3,0,0,1,16,14.2Z" transform="translate(0.06 -5)"/><path class="cls-6" d="M16.12,14.33a6.59,6.59,0,0,1,2.58,0,.3.3,0,0,1,.23.23,5.09,5.09,0,0,1,0,2.33.28.28,0,0,1-.23.22,6.23,6.23,0,0,1-2.58,0,.28.28,0,0,1-.23-.22,5.09,5.09,0,0,1,0-2.33A.3.3,0,0,1,16.12,14.33Z" transform="translate(0.06 -5)"/><path class="cls-7" d="M15.89,14.71a.28.28,0,0,1,.23-.23,6.23,6.23,0,0,1,2.58,0,.28.28,0,0,1,.23.23,6.23,6.23,0,0,1,.13,1.09,5.49,5.49,0,0,0-.13-1.24.3.3,0,0,0-.23-.23,6.59,6.59,0,0,0-2.58,0,.3.3,0,0,0-.23.23,5.49,5.49,0,0,0-.13,1.24A5.39,5.39,0,0,1,15.89,14.71Z" transform="translate(0.06 -5)"/><path class="cls-5" d="M15.89,16.74a.28.28,0,0,0,.23.23,6.23,6.23,0,0,0,2.58,0,.28.28,0,0,0,.23-.23,6.23,6.23,0,0,0,.13-1.09,5.55,5.55,0,0,1-.13,1.24.28.28,0,0,1-.23.22,6.23,6.23,0,0,1-2.58,0,.28.28,0,0,1-.23-.22,5.49,5.49,0,0,1-.13-1.24A5.39,5.39,0,0,0,15.89,16.74Z" transform="translate(0.06 -5)"/><path class="cls-8" d="M15.34,18.06l-.19.35a9.28,9.28,0,0,0,2.26.19,9.28,9.28,0,0,0,2.26-.19l-.19-.35a.26.26,0,0,0-.23-.13H15.56A.26.26,0,0,0,15.34,18.06Z" transform="translate(0.06 -5)"/><path class="cls-6" d="M17.41,19a9,9,0,0,1-2.11-.2.19.19,0,0,1-.12-.15l0-.24a.05.05,0,0,1,.08-.05,8.71,8.71,0,0,0,2.19.21,8.63,8.63,0,0,0,2.19-.21.05.05,0,0,1,.08.05l0,.24a.16.16,0,0,1-.12.15A9,9,0,0,1,17.41,19Z" transform="translate(0.06 -5)"/><path class="cls-7" d="M19.49,18.8c-.13-.08-.09-.22,0-.32a5.78,5.78,0,0,1-1.63.18,8.81,8.81,0,0,1-2.57-.21s.23.2.05.32a1.19,1.19,0,0,0,.27.07s-.23-.18,0-.23.38.07.68.1a12.89,12.89,0,0,0,2.41,0c.62-.09.64-.08.66,0s.1.12-.07.2Z" transform="translate(0.06 -5)"/></g><rect class="cls-9" x="2.32" y="2.43" width="19.12" height="9.26" rx="4.63"/><rect class="cls-10" x="2.53" y="2.66" width="18.7" height="8.81" rx="4.41"/><path class="cls-11" d="M20.49,16.22H3.15a.58.58,0,0,1-.57-.57v.12a.57.57,0,0,0,.57.57H20.49a.56.56,0,0,0,.56-.57v-.12A.57.57,0,0,1,20.49,16.22Z" transform="translate(0.06 -5)"/><path class="cls-9" d="M20.49,7.9H3.15a.58.58,0,0,0-.57.57V8.35a.57.57,0,0,1,.57-.57H20.49a.56.56,0,0,1,.56.57v.12A.57.57,0,0,0,20.49,7.9Z" transform="translate(0.06 -5)"/></g></svg>